<svg width="42" height="42" viewBox="0 0 42 42" fill="none" xmlns="http://www.w3.org/2000/svg">
<g filter="url(#filter0_d_3458_11876)">
<path d="M21 12C19.4178 12 17.871 12.4692 16.5554 13.3482C15.2398 14.2273 14.2145 15.4767 13.609 16.9385C13.0035 18.4003 12.845 20.0089 13.1537 21.5607C13.4624 23.1126 14.2243 24.538 15.3431 25.6569C16.462 26.7757 17.8874 27.5376 19.4393 27.8463C20.9911 28.155 22.5997 27.9965 24.0615 27.391C25.5233 26.7855 26.7727 25.7602 27.6518 24.4446C28.5308 23.129 29 21.5822 29 20C28.9976 17.879 28.154 15.8456 26.6542 14.3458C25.1544 12.846 23.121 12.0024 21 12ZM21.9231 23.6923H21.6154V24.3077C21.6154 24.4709 21.5506 24.6274 21.4351 24.7428C21.3197 24.8582 21.1632 24.9231 21 24.9231C20.8368 24.9231 20.6803 24.8582 20.5649 24.7428C20.4495 24.6274 20.3846 24.4709 20.3846 24.3077V23.6923H19.1538C18.9906 23.6923 18.8341 23.6275 18.7187 23.5121C18.6033 23.3967 18.5385 23.2401 18.5385 23.0769C18.5385 22.9137 18.6033 22.7572 18.7187 22.6418C18.8341 22.5264 18.9906 22.4615 19.1538 22.4615H21.9231C22.1679 22.4615 22.4027 22.3643 22.5758 22.1912C22.7489 22.0181 22.8462 21.7833 22.8462 21.5385C22.8462 21.2936 22.7489 21.0589 22.5758 20.8857C22.4027 20.7126 22.1679 20.6154 21.9231 20.6154H20.0769C19.5057 20.6154 18.9579 20.3885 18.5539 19.9845C18.15 19.5806 17.9231 19.0328 17.9231 18.4615C17.9231 17.8903 18.15 17.3425 18.5539 16.9385C18.9579 16.5346 19.5057 16.3077 20.0769 16.3077H20.3846V15.6923C20.3846 15.5291 20.4495 15.3726 20.5649 15.2572C20.6803 15.1418 20.8368 15.0769 21 15.0769C21.1632 15.0769 21.3197 15.1418 21.4351 15.2572C21.5506 15.3726 21.6154 15.5291 21.6154 15.6923V16.3077H22.8462C23.0094 16.3077 23.1659 16.3725 23.2813 16.4879C23.3967 16.6033 23.4615 16.7599 23.4615 16.9231C23.4615 17.0863 23.3967 17.2428 23.2813 17.3582C23.1659 17.4736 23.0094 17.5385 22.8462 17.5385H20.0769C19.8321 17.5385 19.5973 17.6357 19.4242 17.8088C19.2511 17.9819 19.1538 18.2167 19.1538 18.4615C19.1538 18.7064 19.2511 18.9411 19.4242 19.1143C19.5973 19.2874 19.8321 19.3846 20.0769 19.3846H21.9231C22.4943 19.3846 23.0422 19.6115 23.4461 20.0155C23.85 20.4194 24.0769 20.9672 24.0769 21.5385C24.0769 22.1097 23.85 22.6575 23.4461 23.0615C23.0422 23.4654 22.4943 23.6923 21.9231 23.6923Z" fill="#00FF94"/>
</g>
<defs>
<filter id="filter0_d_3458_11876" x="0" y="0" width="42" height="42" filterUnits="userSpaceOnUse" color-interpolation-filters="sRGB">
<feFlood flood-opacity="0" result="BackgroundImageFix"/>
<feColorMatrix in="SourceAlpha" type="matrix" values="0 0 0 0 0 0 0 0 0 0 0 0 0 0 0 0 0 0 127 0" result="hardAlpha"/>
<feOffset dy="1"/>
<feGaussianBlur stdDeviation="6.5"/>
<feComposite in2="hardAlpha" operator="out"/>
<feColorMatrix type="matrix" values="0 0 0 0 0 0 0 0 0 1 0 0 0 0 0.580392 0 0 0 0.7 0"/>
<feBlend mode="normal" in2="BackgroundImageFix" result="effect1_dropShadow_3458_11876"/>
<feBlend mode="normal" in="SourceGraphic" in2="effect1_dropShadow_3458_11876" result="shape"/>
</filter>
</defs>
</svg>
