<svg width="427" height="175" viewBox="0 0 427 175" fill="none" xmlns="http://www.w3.org/2000/svg">
<path d="M149.78 157.333V153.167C149.78 152.819 149.516 152.646 148.989 152.646C148.461 152.646 148.197 152.819 148.197 153.167V157.333C148.197 157.681 148.461 157.854 148.989 157.854C149.516 157.854 149.78 157.681 149.78 157.333ZM151.343 152.75V157.75C151.343 158.653 150.558 159.104 148.989 159.104C147.419 159.104 146.634 158.653 146.634 157.75V152.75C146.634 151.847 147.419 151.396 148.989 151.396C150.558 151.396 151.343 151.847 151.343 152.75Z" fill="white"/>
<path d="M110.384 156.396V157.646H109.926V159H108.364V157.646H105.384V156.604L108.884 151.5H109.926V156.396H110.384ZM106.759 156.396H108.364V154L106.759 156.396ZM116.16 157.333V153.167C116.16 152.819 115.896 152.646 115.369 152.646C114.841 152.646 114.577 152.819 114.577 153.167V157.333C114.577 157.681 114.841 157.854 115.369 157.854C115.896 157.854 116.16 157.681 116.16 157.333ZM117.723 152.75V157.75C117.723 158.653 116.938 159.104 115.369 159.104C113.799 159.104 113.015 158.653 113.015 157.75V152.75C113.015 151.847 113.799 151.396 115.369 151.396C116.938 151.396 117.723 151.847 117.723 152.75Z" fill="white"/>
<path d="M72.5303 155.042C71.8358 155.042 71.4886 154.625 71.4886 153.792V152.75C71.4886 151.847 72.3219 151.396 73.9886 151.396C75.6553 151.396 76.4886 151.847 76.4886 152.75V153.792C76.4886 154.625 76.1414 155.042 75.4469 155.042C76.2108 155.042 76.5928 155.458 76.5928 156.292V157.75C76.5928 158.653 75.7247 159.104 73.9886 159.104C72.2525 159.104 71.3844 158.653 71.3844 157.75V156.292C71.3844 155.458 71.7664 155.042 72.5303 155.042ZM73.0511 153.896C73.0511 154.312 73.3636 154.521 73.9886 154.521C74.6136 154.521 74.9261 154.312 74.9261 153.896V153.167C74.9261 152.681 74.6136 152.438 73.9886 152.438C73.3636 152.438 73.0511 152.681 73.0511 153.167V153.896ZM75.0303 156.188C75.0303 155.771 74.6831 155.562 73.9886 155.562C73.2942 155.562 72.9469 155.771 72.9469 156.188V157.333C72.9469 157.819 73.2942 158.062 73.9886 158.062C74.6831 158.062 75.0303 157.819 75.0303 157.333V156.188ZM82.3752 157.333V153.167C82.3752 152.819 82.1113 152.646 81.5835 152.646C81.0558 152.646 80.7919 152.819 80.7919 153.167V157.333C80.7919 157.681 81.0558 157.854 81.5835 157.854C82.1113 157.854 82.3752 157.681 82.3752 157.333ZM83.9377 152.75V157.75C83.9377 158.653 83.153 159.104 81.5835 159.104C80.0141 159.104 79.2294 158.653 79.2294 157.75V152.75C79.2294 151.847 80.0141 151.396 81.5835 151.396C83.153 151.396 83.9377 151.847 83.9377 152.75Z" fill="white"/>
<path d="M50.7594 127.125C51.4261 127.125 51.7594 126.917 51.7594 126.5H53.3219V134H51.7594V128.375H50.7594V127.125ZM60.4104 128.688V128.167C60.4104 127.819 60.0604 127.646 59.3604 127.646C58.6715 127.646 58.327 127.819 58.327 128.167V128.792H56.7645V127.75C56.7645 126.847 57.6326 126.396 59.3687 126.396C61.1048 126.396 61.9729 126.847 61.9729 127.75V129C61.9729 129.764 61.2715 130.285 59.8687 130.562L58.8687 130.771C58.5076 130.84 58.327 131.049 58.327 131.396V132.75H61.9729V134H56.7645V130.979C56.7645 130.285 57.4659 129.799 58.8687 129.521L59.8687 129.312C60.2298 129.243 60.4104 129.035 60.4104 128.688ZM67.7553 132.333V128.167C67.7553 127.819 67.4914 127.646 66.9636 127.646C66.4358 127.646 66.1719 127.819 66.1719 128.167V132.333C66.1719 132.681 66.4358 132.854 66.9636 132.854C67.4914 132.854 67.7553 132.681 67.7553 132.333ZM69.3178 127.75V132.75C69.3178 133.653 68.5331 134.104 66.9636 134.104C65.3942 134.104 64.6094 133.653 64.6094 132.75V127.75C64.6094 126.847 65.3942 126.396 66.9636 126.396C68.5331 126.396 69.3178 126.847 69.3178 127.75Z" fill="white"/>
<path d="M23.7594 85.125C24.4261 85.125 24.7594 84.9167 24.7594 84.5H26.3219V92H24.7594V86.375H23.7594V85.125ZM29.7645 90.75V85.75C29.7645 84.8472 30.6326 84.3958 32.3687 84.3958C34.1048 84.3958 34.9729 84.8472 34.9729 85.75V86.7917H33.4104V86.1667C33.4104 85.8194 33.0631 85.6458 32.3687 85.6458C31.6742 85.6458 31.327 85.8194 31.327 86.1667V88.1458C31.327 87.5903 31.934 87.3125 33.1479 87.3125C34.3645 87.3125 34.9729 87.7639 34.9729 88.6667V90.75C34.9729 91.6528 34.1048 92.1042 32.3687 92.1042C30.6326 92.1042 29.7645 91.6528 29.7645 90.75ZM31.327 89.0833V90.3333C31.327 90.6806 31.6742 90.8542 32.3687 90.8542C33.0631 90.8542 33.4104 90.6806 33.4104 90.3333V89.0833C33.4104 88.7361 33.0631 88.5625 32.3687 88.5625C31.6742 88.5625 31.327 88.7361 31.327 89.0833ZM40.7553 90.3333V86.1667C40.7553 85.8194 40.4914 85.6458 39.9636 85.6458C39.4358 85.6458 39.1719 85.8194 39.1719 86.1667V90.3333C39.1719 90.6806 39.4358 90.8542 39.9636 90.8542C40.4914 90.8542 40.7553 90.6806 40.7553 90.3333ZM42.3178 85.75V90.75C42.3178 91.6528 41.5331 92.1042 39.9636 92.1042C38.3942 92.1042 37.6094 91.6528 37.6094 90.75V85.75C37.6094 84.8472 38.3942 84.3958 39.9636 84.3958C41.5331 84.3958 42.3178 84.8472 42.3178 85.75Z" fill="white"/>
<path d="M26.0303 58.6875V58.1667C26.0303 57.8194 25.6803 57.6458 24.9803 57.6458C24.2914 57.6458 23.9469 57.8194 23.9469 58.1667V58.7917H22.3844V57.75C22.3844 56.8472 23.2525 56.3958 24.9886 56.3958C26.7247 56.3958 27.5928 56.8472 27.5928 57.75V59C27.5928 59.7639 26.8914 60.2847 25.4886 60.5625L24.4886 60.7708C24.1275 60.8403 23.9469 61.0486 23.9469 61.3958V62.75H27.5928V64H22.3844V60.9792C22.3844 60.2847 23.0858 59.7986 24.4886 59.5208L25.4886 59.3125C25.8497 59.2431 26.0303 59.0347 26.0303 58.6875ZM33.3752 62.3333V58.1667C33.3752 57.8194 33.1113 57.6458 32.5835 57.6458C32.0558 57.6458 31.7919 57.8194 31.7919 58.1667V62.3333C31.7919 62.6806 32.0558 62.8542 32.5835 62.8542C33.1113 62.8542 33.3752 62.6806 33.3752 62.3333ZM34.9377 57.75V62.75C34.9377 63.6528 34.153 64.1042 32.5835 64.1042C31.0141 64.1042 30.2294 63.6528 30.2294 62.75V57.75C30.2294 56.8472 31.0141 56.3958 32.5835 56.3958C34.153 56.3958 34.9377 56.8472 34.9377 57.75ZM40.7553 62.3333V58.1667C40.7553 57.8194 40.4914 57.6458 39.9636 57.6458C39.4358 57.6458 39.1719 57.8194 39.1719 58.1667V62.3333C39.1719 62.6806 39.4358 62.8542 39.9636 62.8542C40.4914 62.8542 40.7553 62.6806 40.7553 62.3333ZM42.3178 57.75V62.75C42.3178 63.6528 41.5331 64.1042 39.9636 64.1042C38.3942 64.1042 37.6094 63.6528 37.6094 62.75V57.75C37.6094 56.8472 38.3942 56.3958 39.9636 56.3958C41.5331 56.3958 42.3178 56.8472 42.3178 57.75Z" fill="white"/>
<path d="M59.0303 40.6875V40.1667C59.0303 39.8194 58.6803 39.6458 57.9803 39.6458C57.2914 39.6458 56.9469 39.8194 56.9469 40.1667V40.7917H55.3844V39.75C55.3844 38.8472 56.2525 38.3958 57.9886 38.3958C59.7247 38.3958 60.5928 38.8472 60.5928 39.75V41C60.5928 41.7639 59.8914 42.2847 58.4886 42.5625L57.4886 42.7708C57.1275 42.8403 56.9469 43.0486 56.9469 43.3958V44.75H60.5928V46H55.3844V42.9792C55.3844 42.2847 56.0858 41.7986 57.4886 41.5208L58.4886 41.3125C58.8497 41.2431 59.0303 41.0347 59.0303 40.6875ZM67.9794 43.3958V44.6458H67.521V46H65.9585V44.6458H62.9794V43.6042L66.4794 38.5H67.521V43.3958H67.9794ZM64.3544 43.3958H65.9585V41L64.3544 43.3958ZM73.7553 44.3333V40.1667C73.7553 39.8194 73.4914 39.6458 72.9636 39.6458C72.4358 39.6458 72.1719 39.8194 72.1719 40.1667V44.3333C72.1719 44.6806 72.4358 44.8542 72.9636 44.8542C73.4914 44.8542 73.7553 44.6806 73.7553 44.3333ZM75.3178 39.75V44.75C75.3178 45.6528 74.5331 46.1042 72.9636 46.1042C71.3942 46.1042 70.6094 45.6528 70.6094 44.75V39.75C70.6094 38.8472 71.3942 38.3958 72.9636 38.3958C74.5331 38.3958 75.3178 38.8472 75.3178 39.75Z" fill="white"/>
<path d="M104.03 20.6875V20.1667C104.03 19.8194 103.68 19.6458 102.98 19.6458C102.291 19.6458 101.947 19.8194 101.947 20.1667V20.7917H100.384V19.75C100.384 18.8472 101.252 18.3958 102.989 18.3958C104.725 18.3958 105.593 18.8472 105.593 19.75V21C105.593 21.7639 104.891 22.2847 103.489 22.5625L102.489 22.7708C102.127 22.8403 101.947 23.0486 101.947 23.3958V24.75H105.593V26H100.384V22.9792C100.384 22.2847 101.086 21.7986 102.489 21.5208L103.489 21.3125C103.85 21.2431 104.03 21.0347 104.03 20.6875ZM109.125 22.0417C108.431 22.0417 108.084 21.625 108.084 20.7917V19.75C108.084 18.8472 108.917 18.3958 110.584 18.3958C112.25 18.3958 113.084 18.8472 113.084 19.75V20.7917C113.084 21.625 112.736 22.0417 112.042 22.0417C112.806 22.0417 113.188 22.4583 113.188 23.2917V24.75C113.188 25.6528 112.32 26.1042 110.584 26.1042C108.847 26.1042 107.979 25.6528 107.979 24.75V23.2917C107.979 22.4583 108.361 22.0417 109.125 22.0417ZM109.646 20.8958C109.646 21.3125 109.959 21.5208 110.584 21.5208C111.209 21.5208 111.521 21.3125 111.521 20.8958V20.1667C111.521 19.6806 111.209 19.4375 110.584 19.4375C109.959 19.4375 109.646 19.6806 109.646 20.1667V20.8958ZM111.625 23.1875C111.625 22.7708 111.278 22.5625 110.584 22.5625C109.889 22.5625 109.542 22.7708 109.542 23.1875V24.3333C109.542 24.8194 109.889 25.0625 110.584 25.0625C111.278 25.0625 111.625 24.8194 111.625 24.3333V23.1875ZM118.97 24.3333V20.1667C118.97 19.8194 118.706 19.6458 118.178 19.6458C117.651 19.6458 117.387 19.8194 117.387 20.1667V24.3333C117.387 24.6806 117.651 24.8542 118.178 24.8542C118.706 24.8542 118.97 24.6806 118.97 24.3333ZM120.533 19.75V24.75C120.533 25.6528 119.748 26.1042 118.178 26.1042C116.609 26.1042 115.824 25.6528 115.824 24.75V19.75C115.824 18.8472 116.609 18.3958 118.178 18.3958C119.748 18.3958 120.533 18.8472 120.533 19.75Z" fill="white"/>
<rect x="147.968" y="166" width="2" height="9" fill="#D9D9D9"/>
<rect x="129.968" y="166" width="2" height="9" fill="#D9D9D9" fill-opacity="0.5"/>
<rect x="111.968" y="166" width="2" height="9" fill="#D9D9D9"/>
<rect x="93.9678" y="166" width="2" height="9" fill="#D9D9D9" fill-opacity="0.5"/>
<rect x="76.7227" y="164.975" width="2.40506" height="8.41772" transform="rotate(15 76.7227 164.975)" fill="#D9D9D9"/>
<rect x="60.7959" y="156.688" width="2.40506" height="8.41772" transform="rotate(30 60.7959 156.688)" fill="#D9D9D9" fill-opacity="0.5"/>
<rect x="46.2031" y="137.9" width="2.40506" height="8.41772" transform="rotate(49.1503 46.2031 137.9)" fill="#D9D9D9"/>
<rect x="30.4053" y="116.873" width="2.40506" height="8.41772" transform="rotate(49.1503 30.4053 116.873)" fill="#D9D9D9" fill-opacity="0.5"/>
<rect x="15.0029" y="95.3896" width="2.40506" height="8.41772" transform="rotate(52.8494 15.0029 95.3896)" fill="#D9D9D9"/>
<rect x="9.96777" y="76" width="2" height="9" transform="rotate(90 9.96777 76)" fill="#D9D9D9" fill-opacity="0.5"/>
<rect x="17.915" y="53.4727" width="2.40506" height="8.41772" transform="rotate(126.497 17.915 53.4727)" fill="#D9D9D9"/>
<rect x="37.4541" y="40.0469" width="2.40506" height="8.41772" transform="rotate(150.836 37.4541 40.0469)" fill="#D9D9D9" fill-opacity="0.5"/>
<rect x="59.1006" y="29.2236" width="2.40506" height="8.41772" transform="rotate(150.836 59.1006 29.2236)" fill="#D9D9D9"/>
<rect x="80.7451" y="18.4004" width="2.40506" height="8.41772" transform="rotate(150.836 80.7451 18.4004)" fill="#D9D9D9" fill-opacity="0.5"/>
<rect x="102.392" y="7.57812" width="2.40506" height="8.41772" transform="rotate(150.836 102.392 7.57812)" fill="#D9D9D9"/>
<path d="M277.871 157.333V153.167C277.871 152.819 277.607 152.646 277.079 152.646C276.552 152.646 276.288 152.819 276.288 153.167V157.333C276.288 157.681 276.552 157.854 277.079 157.854C277.607 157.854 277.871 157.681 277.871 157.333ZM279.434 152.75V157.75C279.434 158.653 278.649 159.104 277.079 159.104C275.51 159.104 274.725 158.653 274.725 157.75V152.75C274.725 151.847 275.51 151.396 277.079 151.396C278.649 151.396 279.434 151.847 279.434 152.75Z" fill="white"/>
<path d="M311.792 152.125C312.458 152.125 312.792 151.917 312.792 151.5H314.354V159H312.792V153.375H311.792V152.125Z" fill="white"/>
<path d="M349.062 153.688V153.167C349.062 152.819 348.713 152.646 348.013 152.646C347.324 152.646 346.979 152.819 346.979 153.167V153.792H345.417V152.75C345.417 151.847 346.285 151.396 348.021 151.396C349.757 151.396 350.625 151.847 350.625 152.75V154C350.625 154.764 349.924 155.285 348.521 155.562L347.521 155.771C347.16 155.84 346.979 156.049 346.979 156.396V157.75H350.625V159H345.417V155.979C345.417 155.285 346.118 154.799 347.521 154.521L348.521 154.312C348.882 154.243 349.062 154.035 349.062 153.688Z" fill="white"/>
<path d="M373.021 127.646C372.326 127.646 371.979 127.819 371.979 128.167V128.792H370.417V127.75C370.417 126.847 371.285 126.396 373.021 126.396C374.757 126.396 375.625 126.847 375.625 127.75V128.792C375.625 129.625 375.243 130.042 374.479 130.042C375.243 130.042 375.625 130.458 375.625 131.292V132.75C375.625 133.653 374.757 134.104 373.021 134.104C371.285 134.104 370.417 133.653 370.417 132.75V131.708H371.979V132.333C371.979 132.681 372.326 132.854 373.021 132.854C373.715 132.854 374.062 132.681 374.062 132.333V131.292C374.062 130.944 373.889 130.771 373.542 130.771H372.188V129.312H373.542C373.889 129.312 374.062 129.139 374.062 128.792V128.167C374.062 127.819 373.715 127.646 373.021 127.646Z" fill="white"/>
<path d="M404.475 89.3958V90.6458H404.017V92H402.454V90.6458H399.475V89.6042L402.975 84.5H404.017V89.3958H404.475ZM400.85 89.3958H402.454V87L400.85 89.3958Z" fill="white"/>
<path d="M398.417 56.5H403.417V57.75H399.979V59.3125C399.979 58.7569 400.586 58.4792 401.8 58.4792C403.017 58.4792 403.625 58.9306 403.625 59.8333V62.75C403.625 63.6528 402.757 64.1042 401.021 64.1042C399.285 64.1042 398.417 63.6528 398.417 62.75V61.7083H399.979V62.3333C399.979 62.6806 400.326 62.8542 401.021 62.8542C401.715 62.8542 402.062 62.6806 402.062 62.3333V60.25C402.062 59.9028 401.715 59.7292 401.021 59.7292C400.326 59.7292 399.979 59.9028 399.979 60.25V60.4583H398.417V56.5Z" fill="white"/>
<path d="M361.417 44.75V39.75C361.417 38.8472 362.285 38.3958 364.021 38.3958C365.757 38.3958 366.625 38.8472 366.625 39.75V40.7917H365.062V40.1667C365.062 39.8194 364.715 39.6458 364.021 39.6458C363.326 39.6458 362.979 39.8194 362.979 40.1667V42.1458C362.979 41.5903 363.586 41.3125 364.8 41.3125C366.017 41.3125 366.625 41.7639 366.625 42.6667V44.75C366.625 45.6528 365.757 46.1042 364.021 46.1042C362.285 46.1042 361.417 45.6528 361.417 44.75ZM362.979 43.0833V44.3333C362.979 44.6806 363.326 44.8542 364.021 44.8542C364.715 44.8542 365.062 44.6806 365.062 44.3333V43.0833C365.062 42.7361 364.715 42.5625 364.021 42.5625C363.326 42.5625 362.979 42.7361 362.979 43.0833Z" fill="white"/>
<path d="M319.625 18.5H324.625V19.9167C323.411 20.5167 322.653 21.4792 322.35 22.8042C322.047 24.1264 321.889 25.1917 321.875 26H320.304C320.496 24.4444 320.792 23.1472 321.192 22.1083C321.592 21.0694 322.34 20.2833 323.438 19.75H319.625V18.5Z" fill="white"/>
<rect width="2" height="9" transform="matrix(-1 0 0 1 279.059 166)" fill="#D9D9D9"/>
<rect width="2" height="9" transform="matrix(-1 0 0 1 297.059 166)" fill="#D9D9D9" fill-opacity="0.5"/>
<rect width="2" height="9" transform="matrix(-1 0 0 1 315.059 166)" fill="#D9D9D9"/>
<rect width="2" height="9" transform="matrix(-1 0 0 1 333.059 166)" fill="#D9D9D9" fill-opacity="0.5"/>
<rect width="2.40506" height="8.41772" transform="matrix(-0.965926 0.258819 0.258819 0.965926 350.304 164.975)" fill="#D9D9D9"/>
<rect width="2.40506" height="8.41772" transform="matrix(-0.866025 0.5 0.5 0.866025 366.23 156.688)" fill="#D9D9D9" fill-opacity="0.5"/>
<rect width="2.40506" height="8.41772" transform="matrix(-0.654077 0.756428 0.756428 0.654077 380.823 137.9)" fill="#D9D9D9"/>
<rect width="2.40506" height="8.41772" transform="matrix(-0.654077 0.756428 0.756428 0.654077 396.621 116.873)" fill="#D9D9D9" fill-opacity="0.5"/>
<rect width="2.40506" height="8.41772" transform="matrix(-0.603911 0.797051 0.797051 0.603911 412.023 95.3896)" fill="#D9D9D9"/>
<rect width="2" height="9" transform="matrix(4.37114e-08 1 1 -4.37114e-08 417.059 76)" fill="#D9D9D9" fill-opacity="0.5"/>
<rect width="2.40506" height="8.41772" transform="matrix(0.594776 0.803892 0.803892 -0.594776 409.111 53.4727)" fill="#D9D9D9"/>
<rect width="2.40506" height="8.41772" transform="matrix(0.87323 0.487308 0.487308 -0.87323 389.572 40.0469)" fill="#D9D9D9" fill-opacity="0.5"/>
<rect width="2.40506" height="8.41772" transform="matrix(0.87323 0.487308 0.487308 -0.87323 367.926 29.2236)" fill="#D9D9D9"/>
<rect width="2.40506" height="8.41772" transform="matrix(0.87323 0.487308 0.487308 -0.87323 346.281 18.4004)" fill="#D9D9D9" fill-opacity="0.5"/>
<rect width="2.40506" height="8.41772" transform="matrix(0.87323 0.487308 0.487308 -0.87323 324.635 7.57812)" fill="#D9D9D9"/>
</svg>
