<svg width="12" height="10" viewBox="0 0 12 10" fill="none" xmlns="http://www.w3.org/2000/svg">
<path d="M11.6234 1.96126L10.5887 0.955353C10.5489 0.916662 10.5017 0.885972 10.4497 0.865034C10.3977 0.844097 10.342 0.833321 10.2857 0.833324C10.2294 0.833326 10.1737 0.844106 10.1217 0.865048C10.0697 0.88599 10.0224 0.916684 9.98264 0.955378C9.94285 0.994072 9.91128 1.04001 9.88974 1.09056C9.86821 1.14112 9.85712 1.1953 9.85713 1.25002C9.85713 1.30474 9.86822 1.35892 9.88976 1.40947C9.9113 1.46002 9.94287 1.50596 9.98267 1.54465L11.0173 2.55051C11.0572 2.58911 11.0889 2.63502 11.1104 2.6856C11.132 2.73618 11.143 2.79041 11.1429 2.84515V7.08333C11.1429 7.19384 11.0977 7.29982 11.0173 7.37796C10.937 7.4561 10.8279 7.5 10.7143 7.5C10.6006 7.5 10.4916 7.4561 10.4112 7.37796C10.3309 7.29982 10.2857 7.19384 10.2857 7.08333V5C10.2853 4.6686 10.1497 4.35087 9.9087 4.11654C9.66767 3.8822 9.34087 3.75038 9 3.75H8.14285V1.25C8.14246 0.918596 8.00688 0.600874 7.76585 0.366535C7.52481 0.132197 7.19801 0.000379083 6.85714 0H2.57143C2.23055 0.000379083 1.90375 0.132197 1.66272 0.366535C1.42169 0.600874 1.2861 0.918596 1.28571 1.25V9.16667H0.428571C0.314907 9.16667 0.205898 9.21056 0.125526 9.2887C0.0451529 9.36685 0 9.47283 0 9.58333C0 9.69384 0.0451529 9.79982 0.125526 9.87796C0.205898 9.9561 0.314907 10 0.428571 10H9C9.11366 10 9.22267 9.9561 9.30304 9.87796C9.38342 9.79982 9.42857 9.69384 9.42857 9.58333C9.42857 9.47283 9.38342 9.36685 9.30304 9.2887C9.22267 9.21056 9.11366 9.16667 9 9.16667H8.14285V4.58333H9C9.11362 4.58346 9.22255 4.6274 9.3029 4.70551C9.38324 4.78362 9.42844 4.88953 9.42857 5V7.08333C9.42857 7.41485 9.56403 7.7328 9.80514 7.96722C10.0463 8.20164 10.3733 8.33333 10.7143 8.33333C11.0553 8.33333 11.3823 8.20164 11.6234 7.96722C11.8645 7.7328 12 7.41485 12 7.08333V2.84515C12.0005 2.68094 11.9674 2.51826 11.9028 2.36654C11.8381 2.21482 11.7432 2.07707 11.6234 1.96126ZM6.42857 4.58333H3C2.88633 4.58333 2.77733 4.53943 2.69695 4.46129C2.61658 4.38315 2.57143 4.27717 2.57143 4.16667C2.57143 4.05616 2.61658 3.95018 2.69695 3.87204C2.77733 3.7939 2.88633 3.75 3 3.75H6.42857C6.54223 3.75 6.65124 3.7939 6.73161 3.87204C6.81199 3.95018 6.85714 4.05616 6.85714 4.16667C6.85714 4.27717 6.81199 4.38315 6.73161 4.46129C6.65124 4.53943 6.54223 4.58333 6.42857 4.58333Z" fill="white"/>
</svg>
