<svg width="16" height="13" viewBox="0 0 16 13" fill="none" xmlns="http://www.w3.org/2000/svg">
<path d="M9.98704 8.53174H15.5895V9.78227H9.79531C9.86572 9.39808 9.93185 8.97883 9.98704 8.53174ZM10.1393 6.12445C10.1393 6.3356 10.1355 6.54407 10.1286 6.74972H15.5895V5.49919H10.1286C10.1355 5.70472 10.1393 5.9133 10.1393 6.12445ZM9.77794 2.37284C9.84978 2.75558 9.91793 3.17495 9.97526 3.62338H15.5895V2.37284H9.77794ZM8.04239 11.8039C8.07831 11.6997 8.92135 9.21623 8.92135 6.12445C8.92135 3.03267 8.07831 0.549064 8.04239 0.444893L7.8892 0L7.43057 0.0293094C7.35635 0.0340722 5.59225 0.154119 3.80306 0.924835C1.3151 1.99634 0 3.79435 0 6.12445C0 8.45443 1.3151 10.2524 3.80306 11.3241C5.59225 12.0947 7.35623 12.2148 7.43045 12.2196L7.8892 12.2489L8.04239 11.8039ZM7.70341 6.12445C7.70341 8.24121 7.26691 10.0873 7.0351 10.9186C6.43041 10.8348 5.33047 10.63 4.24849 10.1599C2.23759 9.28572 1.21793 7.92808 1.21793 6.12445C1.21793 4.32082 2.23759 2.96306 4.24849 2.08903C5.33083 1.61861 6.43125 1.41381 7.03557 1.33016C7.26762 2.15962 7.70341 4.00074 7.70341 6.12445Z" fill="white" fill-opacity="0.24"/>
<path d="M7.70341 6.12445C7.70341 8.24121 7.26691 10.0873 7.0351 10.9186C6.43041 10.8348 5.33047 10.63 4.24849 10.1599C2.23759 9.28572 1.21793 7.92808 1.21793 6.12445C1.21793 4.32082 2.23759 2.96306 4.24849 2.08903C5.33083 1.61861 6.43125 1.41381 7.03557 1.33016C7.26762 2.15962 7.70341 4.00074 7.70341 6.12445Z" fill="white" fill-opacity="0.24"/>
</svg>
