<svg width="18" height="13" viewBox="0 0 18 13" fill="none" xmlns="http://www.w3.org/2000/svg">
<path d="M8.59359 0C5.09538 0 2.24937 2.84602 2.24937 6.34429C2.24937 9.84249 5.09538 12.6884 8.59359 12.6884C12.0918 12.6884 14.9378 9.84249 14.9378 6.34429C14.9379 2.84609 12.0918 0 8.59359 0ZM8.59359 11.5887C5.70182 11.5887 3.34918 9.23613 3.34918 6.34437C3.34918 3.45252 5.70182 1.09988 8.59359 1.09988C11.4854 1.09988 13.838 3.45252 13.838 6.34437C13.8381 9.23606 11.4854 11.5887 8.59359 11.5887Z" fill="white" fill-opacity="0.16"/>
<path d="M3.29177 1.04263C3.50653 0.827874 3.50653 0.479674 3.29177 0.264918C3.07694 0.0501613 2.72881 0.0501613 2.51406 0.264918C-0.838019 3.61707 -0.838019 9.07154 2.51406 12.4238C2.62147 12.5312 2.76217 12.5848 2.90295 12.5848C3.04365 12.5848 3.18443 12.5312 3.29177 12.4238C3.5066 12.209 3.5066 11.8609 3.29184 11.6461C0.368473 8.72268 0.368473 3.966 3.29177 1.04263Z" fill="white" fill-opacity="0.16"/>
<path d="M14.6729 0.264918C14.458 0.0501613 14.1099 0.0501613 13.8951 0.264918C13.6804 0.479674 13.6804 0.827874 13.8951 1.04263C16.8186 3.966 16.8186 8.72268 13.8951 11.6461C13.6804 11.8609 13.6804 12.2091 13.8951 12.4238C14.0026 12.5311 14.1433 12.5848 14.284 12.5848C14.4247 12.5848 14.5655 12.5312 14.6729 12.4238C18.0251 9.07146 18.0251 3.61707 14.6729 0.264918Z" fill="white" fill-opacity="0.16"/>
<path d="M8.59342 8.0308C8.89718 8.0308 9.14332 7.78458 9.14332 7.48089V2.79717C9.14332 2.49347 8.89718 2.24726 8.59342 2.24726C8.28965 2.24726 8.04351 2.49347 8.04351 2.79717V7.48089C8.04351 7.78458 8.28972 8.0308 8.59342 8.0308Z" fill="white" fill-opacity="0.16"/>
<path d="M8.59349 9.89143C8.97126 9.89143 9.2775 9.58519 9.2775 9.20742C9.2775 8.82965 8.97126 8.52341 8.59349 8.52341C8.21573 8.52341 7.90948 8.82965 7.90948 9.20742C7.90948 9.58519 8.21573 9.89143 8.59349 9.89143Z" fill="white" fill-opacity="0.16"/>
</svg>
