<svg width="15" height="8" viewBox="0 0 15 8" fill="none" xmlns="http://www.w3.org/2000/svg">
<path d="M3.6 0.4H4.88V6H3.92L1.76 2.96V6H0.48V0.4H1.44L3.6 3.44V0.4ZM8.10338 7.04H5.57538V6.384L6.44738 5.528C6.60738 5.37333 6.73271 5.24533 6.82338 5.144C6.91404 5.03733 6.97804 4.94133 7.01538 4.856C7.05271 4.77067 7.07138 4.68267 7.07138 4.592C7.07138 4.496 7.03938 4.42133 6.97538 4.368C6.91671 4.31467 6.83404 4.288 6.72738 4.288C6.62604 4.288 6.51671 4.31467 6.39938 4.368C6.28738 4.42133 6.16204 4.50933 6.02338 4.632L5.54338 4.04C5.71404 3.89067 5.90338 3.77067 6.11138 3.68C6.32471 3.584 6.57271 3.536 6.85538 3.536C7.20204 3.536 7.47938 3.62133 7.68738 3.792C7.90071 3.95733 8.00738 4.19733 8.00738 4.512C8.00738 4.672 7.97804 4.82133 7.91938 4.96C7.86071 5.09333 7.76738 5.23467 7.63938 5.384C7.51138 5.528 7.34338 5.696 7.13538 5.888L6.72738 6.256H8.10338V7.04ZM11.5426 6.112C9.93463 6.112 8.63063 4.848 8.63063 3.2C8.63063 1.552 9.93463 0.288 11.5426 0.288C13.1506 0.288 14.4546 1.552 14.4546 3.2C14.4546 4.848 13.1506 6.112 11.5426 6.112ZM11.5426 4.864C12.4546 4.864 13.1746 4.2 13.1746 3.2C13.1746 2.2 12.4546 1.536 11.5426 1.536C10.6306 1.536 9.91063 2.2 9.91063 3.2C9.91063 4.2 10.6306 4.864 11.5426 4.864Z" fill="white"/>
</svg>
