<svg width="18" height="18" viewBox="0 0 18 18" fill="none" xmlns="http://www.w3.org/2000/svg">
<path d="M17.7329 13.6755C16.6304 12.7492 15.4072 12.0375 14.1232 11.5155C13.9057 9.79648 13.4122 8.27397 12.7185 7.09198L16.2802 3.53022C16.5734 3.23698 16.5734 2.76297 16.2802 2.46973C15.9869 2.17649 15.5129 2.17649 15.2197 2.46973L11.8155 5.87325C11.571 5.61074 11.3137 5.376 11.043 5.18475C11.628 4.63649 12 3.86326 12 2.99999C12 1.3455 10.6545 0 9.00003 0C7.34555 0 6.00006 1.3455 6.00006 2.99999C6.00006 3.86326 6.37205 4.63649 6.95704 5.18475C5.40456 6.27976 4.25257 8.60251 3.88132 11.4863C2.58309 12.0113 1.3546 12.735 0.259595 13.683C-0.0538903 13.9538 -0.0884134 14.4278 0.183096 14.7405C0.453093 15.054 0.927839 15.0885 1.24059 14.817C2.01532 14.1473 2.86433 13.602 3.75982 13.1708C3.75757 13.281 3.75009 13.3883 3.75009 13.5C3.75009 14.8792 3.92558 16.2083 4.27282 17.4517C4.36282 17.7757 4.6583 18 4.99506 18H7.50003C7.91402 18 8.25001 17.664 8.25001 17.25L8.244 14.5665C8.66098 14.1502 9.33974 14.1502 9.74997 14.5515V17.25C9.74997 17.664 10.086 18 10.5 18H13.0049C13.3417 18 13.6372 17.7757 13.7272 17.4517C14.0744 16.2082 14.2499 14.8792 14.2499 13.5C14.2499 13.3987 14.2431 13.3012 14.2416 13.2007C15.1326 13.6297 15.9846 14.166 16.7668 14.8245C16.9079 14.9422 17.0789 15 17.2499 15C17.4636 15 17.6751 14.9092 17.8243 14.733C18.0906 14.4157 18.0494 13.9425 17.7329 13.6755ZM7.05225 10.6372C6.52649 10.7108 6.00302 10.8045 5.48925 10.9395C6.02548 8.09172 7.41523 5.99999 8.99996 5.99999C9.63519 5.99999 10.239 6.33524 10.7692 6.9195L7.05225 10.6372ZM9.30149 10.509L11.619 8.19149C12.0127 8.96999 12.321 9.91798 12.516 10.9657C11.4629 10.6837 10.383 10.536 9.30149 10.509Z" fill="#FF0000"/>
</svg>
