<svg width="29" height="18" viewBox="0 0 29 18" fill="none" xmlns="http://www.w3.org/2000/svg">
<path d="M18.0236 5.06446L19.7849 7.02439C20.7914 6.37108 21.9236 5.94669 23.1817 5.94669C26.3581 5.94669 29 8.65819 29 11.9895C29 15.2885 26.3581 18 23.1817 18C20.3193 18 17.929 15.877 17.457 13.0024L14.815 13.1655C14.5946 13.1655 14.4376 13.0348 14.2806 12.9042L8.9333 6.0115L8.61828 6.69721C10.3796 7.74251 11.6376 9.70244 11.6376 11.9895C11.6376 15.2885 8.9957 18 5.78712 18C2.61074 18 0 15.2885 0 11.9895C0 8.65714 2.61074 5.94669 5.78712 5.94669C6.29034 5.94669 6.76237 6.01254 7.2344 6.10976L8.55587 2.51603L4.93868 1.50314C4.59245 1.40488 4.34084 1.01289 4.43545 0.65331C4.56125 0.261324 4.93868 -1.40185e-07 5.3161 0.0982577L9.65694 1.37247C9.84615 1.40488 10.0656 1.56899 10.129 1.76446C10.1924 1.89512 10.2236 2.12404 10.1602 2.31951L9.84514 3.07108L16.7957 4.44355L17.7076 1.60139L16.4495 1.69965H16.4183C16.0409 1.69965 15.7259 1.30767 15.7259 0.948084C15.7259 0.588502 16.0087 0.22892 16.4183 0.196515L20.5075 0C20.885 0 21.2312 0.327178 21.2312 0.719164C21.2624 1.14355 20.9162 1.43833 20.5709 1.47073L19.1871 1.53659L18.0236 5.06446ZM14.5644 10.9118L16.2945 5.78362L9.53214 4.50941L14.5644 10.9118ZM15.8225 11.6624L17.3956 11.5641C17.459 10.2251 17.9622 9.01568 18.7794 8.03624L17.4902 6.59896L15.8225 11.6624ZM5.2235 11.6958L6.73319 7.51463C6.45037 7.44878 6.10415 7.41638 5.78913 7.41638C3.3676 7.41638 1.41709 9.44216 1.41709 11.9895C1.41709 14.5045 3.3676 16.5303 5.78913 16.5303C8.21066 16.5303 10.2236 14.5045 10.2236 11.9895C10.2236 10.3233 9.37412 8.85366 8.11605 8.06969L6.54296 12.2185C6.38596 12.578 5.97633 12.7411 5.59891 12.6105C5.25269 12.4474 5.09568 12.0554 5.22149 11.6958H5.2235ZM23.1817 12.6753L18.873 12.9366C19.3139 14.9948 21.043 16.5303 23.1817 16.5303C25.6032 16.5303 27.5849 14.5045 27.5849 11.9895C27.5849 9.44111 25.6032 7.41638 23.1817 7.41638C22.2698 7.41638 21.4516 7.6453 20.7602 8.13554L23.6849 11.5003C23.8419 11.7293 23.9365 12.023 23.8107 12.2519C23.7161 12.5132 23.4645 12.6753 23.1817 12.6753ZM18.8106 11.4993L21.673 11.3362L19.7225 9.11498C19.2193 9.83415 18.873 10.5847 18.8106 11.4993Z" fill="#7FFF00"/>
</svg>
