<svg width="138" height="116" viewBox="0 0 138 116" fill="none" xmlns="http://www.w3.org/2000/svg">
<mask id="path-1-inside-1_1_412" fill="white">
<path d="M23.7123 114.288C21.7778 116.222 18.6263 116.233 16.8355 114.165C9.0231 105.142 3.66526 94.2224 1.32582 82.4612C-1.33656 69.0765 0.0298657 55.2029 5.25231 42.5948C10.4748 29.9867 19.3187 19.2104 30.6657 11.6286C42.0126 4.04678 55.3531 -1.62738e-07 69 0C82.6469 1.62738e-07 95.9874 4.04678 107.334 11.6286C118.681 19.2104 127.525 29.9867 132.748 42.5948C137.97 55.2029 139.337 69.0765 136.674 82.4612C134.335 94.2224 128.977 105.142 121.164 114.165C119.374 116.233 116.222 116.222 114.288 114.288V114.288C112.353 112.353 112.371 109.229 114.137 107.14C120.577 99.5183 125 90.3672 126.957 80.5285C129.238 69.0656 128.067 57.1839 123.595 46.3861C119.122 35.5883 111.548 26.3592 101.83 19.866C92.1125 13.3728 80.6875 9.90707 69 9.90707C57.3125 9.90707 45.8875 13.3728 36.1697 19.866C26.4519 26.3592 18.8779 35.5883 14.4052 46.3861C9.93264 57.1839 8.76241 69.0656 11.0425 80.5285C12.9996 90.3672 17.4231 99.5183 23.863 107.14C25.6287 109.229 25.6468 112.353 23.7123 114.288V114.288Z"/>
</mask>
<path d="M23.7123 114.288C21.7778 116.222 18.6263 116.233 16.8355 114.165C9.0231 105.142 3.66526 94.2224 1.32582 82.4612C-1.33656 69.0765 0.0298657 55.2029 5.25231 42.5948C10.4748 29.9867 19.3187 19.2104 30.6657 11.6286C42.0126 4.04678 55.3531 -1.62738e-07 69 0C82.6469 1.62738e-07 95.9874 4.04678 107.334 11.6286C118.681 19.2104 127.525 29.9867 132.748 42.5948C137.97 55.2029 139.337 69.0765 136.674 82.4612C134.335 94.2224 128.977 105.142 121.164 114.165C119.374 116.233 116.222 116.222 114.288 114.288V114.288C112.353 112.353 112.371 109.229 114.137 107.14C120.577 99.5183 125 90.3672 126.957 80.5285C129.238 69.0656 128.067 57.1839 123.595 46.3861C119.122 35.5883 111.548 26.3592 101.83 19.866C92.1125 13.3728 80.6875 9.90707 69 9.90707C57.3125 9.90707 45.8875 13.3728 36.1697 19.866C26.4519 26.3592 18.8779 35.5883 14.4052 46.3861C9.93264 57.1839 8.76241 69.0656 11.0425 80.5285C12.9996 90.3672 17.4231 99.5183 23.863 107.14C25.6287 109.229 25.6468 112.353 23.7123 114.288V114.288Z" stroke="#7FFF00" stroke-width="12" mask="url(#path-1-inside-1_1_412)"/>
</svg>
