<svg width="83" height="83" viewBox="0 0 83 83" fill="none" xmlns="http://www.w3.org/2000/svg">
<path d="M77.9991 40.5C77.9991 60.6584 61.6574 77 41.4991 77C21.3407 77 4.99905 60.6584 4.99905 40.5C4.99905 20.3416 21.3407 4 41.4991 4C61.6574 4 77.9991 20.3416 77.9991 40.5ZM14.3639 40.5C14.3639 55.4863 26.5127 67.6352 41.4991 67.6352C56.4854 67.6352 68.6342 55.4863 68.6342 40.5C68.6342 25.5137 56.4854 13.3648 41.4991 13.3648C26.5127 13.3648 14.3639 25.5137 14.3639 40.5Z" fill="url(#paint0_linear_1_289)" fill-opacity="0.6"/>
<circle cx="41.4991" cy="40.5" r="26.5" fill="url(#paint1_linear_1_289)" fill-opacity="0.6"/>
<path d="M81.9991 40.5C81.9991 62.8675 63.8666 81 41.4991 81C19.1315 81 0.999054 62.8675 0.999054 40.5C0.999054 18.1325 19.1315 0 41.4991 0C63.8666 0 81.9991 18.1325 81.9991 40.5ZM3.75202 40.5C3.75202 61.3471 20.6519 78.247 41.4991 78.247C62.3462 78.247 79.2461 61.3471 79.2461 40.5C79.2461 19.6529 62.3462 2.75297 41.4991 2.75297C20.6519 2.75297 3.75202 19.6529 3.75202 40.5Z" fill="#D9D9D9"/>
<path d="M66.9728 67.0793C73.7569 60.3233 77.5794 51.1491 77.5992 41.5748C77.6191 32.0005 73.8348 22.8104 67.0788 16.0263C60.3228 9.24223 51.1485 5.4198 41.5742 5.39993C31.9999 5.38006 22.8099 9.16438 16.0258 15.9204C9.24168 22.6764 5.41925 31.8506 5.39939 41.4249C5.37952 50.9992 9.16383 60.1893 15.9198 66.9734C22.6758 73.7575 31.8501 77.5799 41.4244 77.5998C50.9987 77.6196 60.1887 73.8353 66.9728 67.0793L66.9728 67.0793Z" stroke="white" stroke-opacity="0.25" stroke-width="1.2" stroke-dasharray="1.2 7.2"/>
<path d="M42.7199 9.3996H43.9999V14.9996H43.0399L40.8799 11.9596V14.9996H39.5999V9.3996H40.5599L42.7199 12.4396V9.3996Z" fill="white"/>
<path d="M9.54376 44.6L7.99976 39H9.34376L10.3118 42.92L11.3918 39H12.4318L13.5118 42.92L14.4798 39H15.8238L14.2798 44.6H12.8238L11.9118 41.296L10.9998 44.6H9.54376Z" fill="white"/>
<path d="M71.2798 43.368H73.5198V44.6H69.9998V39H73.4798V40.232H71.2798V41.16H73.2798V42.376H71.2798V43.368Z" fill="white"/>
<path d="M41.2397 73.824C40.0637 73.824 39.3117 73.264 38.9997 72.44L40.1037 71.8C40.3037 72.264 40.6477 72.576 41.2797 72.576C41.8877 72.576 42.0397 72.336 42.0397 72.12C42.0397 71.776 41.7197 71.64 40.8797 71.408C40.0477 71.176 39.2317 70.776 39.2317 69.704C39.2317 68.624 40.1437 68 41.1117 68C42.0317 68 42.7517 68.44 43.1597 69.264L42.0797 69.896C41.8877 69.496 41.6237 69.248 41.1117 69.248C40.7117 69.248 40.5117 69.448 40.5117 69.672C40.5117 69.928 40.6477 70.104 41.5197 70.368C42.3677 70.624 43.3197 70.92 43.3197 72.104C43.3197 73.184 42.4557 73.824 41.2397 73.824Z" fill="white"/>
<defs>
<linearGradient id="paint0_linear_1_289" x1="41.4991" y1="4" x2="41.4991" y2="77" gradientUnits="userSpaceOnUse">
<stop/>
<stop offset="1" stop-opacity="0"/>
</linearGradient>
<linearGradient id="paint1_linear_1_289" x1="41.4991" y1="14" x2="41.4991" y2="67" gradientUnits="userSpaceOnUse">
<stop/>
<stop offset="1" stop-opacity="0"/>
</linearGradient>
</defs>
</svg>
