<svg width="113" height="22" viewBox="0 0 113 22" fill="none" xmlns="http://www.w3.org/2000/svg">
<mask id="path-1-inside-1_1_13" fill="white">
<path d="M112.798 5.76986C105.405 10.8365 96.6281 14.8556 86.9685 17.5977C77.3088 20.3398 66.9556 21.7511 56.5 21.7511C46.0444 21.7511 35.6912 20.3398 26.0315 17.5977C16.3719 14.8556 7.59484 10.8365 0.201638 5.76986L8.35229 0.184099C14.6751 4.51724 22.1814 7.95447 30.4426 10.2996C38.7038 12.6446 47.5581 13.8516 56.5 13.8516C65.4419 13.8516 74.2962 12.6446 82.5574 10.2996C90.8185 7.95447 98.3249 4.51724 104.648 0.1841L112.798 5.76986Z"/>
</mask>
<path d="M112.798 5.76986C105.405 10.8365 96.6281 14.8556 86.9685 17.5977C77.3088 20.3398 66.9556 21.7511 56.5 21.7511C46.0444 21.7511 35.6912 20.3398 26.0315 17.5977C16.3719 14.8556 7.59484 10.8365 0.201638 5.76986L8.35229 0.184099C14.6751 4.51724 22.1814 7.95447 30.4426 10.2996C38.7038 12.6446 47.5581 13.8516 56.5 13.8516C65.4419 13.8516 74.2962 12.6446 82.5574 10.2996C90.8185 7.95447 98.3249 4.51724 104.648 0.1841L112.798 5.76986Z" stroke="#FF4848" stroke-width="10" mask="url(#path-1-inside-1_1_13)"/>
</svg>
