<svg width="138" height="118" viewBox="0 0 138 118" fill="none" xmlns="http://www.w3.org/2000/svg">
<mask id="path-1-inside-1_1_412" fill="white">
<path d="M20.2096 117.79C10.5598 108.141 3.9882 95.8459 1.32582 82.4612C-1.33656 69.0765 0.0298657 55.2029 5.25231 42.5948C10.4748 29.9867 19.3187 19.2104 30.6657 11.6286C42.0126 4.04678 55.3531 -1.62738e-07 69 0C82.6469 1.62738e-07 95.9874 4.04678 107.334 11.6286C118.681 19.2104 127.525 29.9867 132.748 42.5948C137.97 55.2029 139.337 69.0765 136.674 82.4612C134.012 95.8459 127.44 108.141 117.79 117.79L110.785 110.785C119.049 102.521 124.677 91.9914 126.957 80.5285C129.238 69.0656 128.067 57.1839 123.595 46.3861C119.122 35.5883 111.548 26.3592 101.83 19.866C92.1125 13.3728 80.6875 9.90707 69 9.90707C57.3125 9.90707 45.8875 13.3728 36.1697 19.866C26.4519 26.3592 18.8779 35.5883 14.4052 46.3861C9.93264 57.1839 8.76241 69.0656 11.0425 80.5285C13.3226 91.9914 18.9507 102.521 27.215 110.785L20.2096 117.79Z"/>
</mask>
<path d="M20.2096 117.79C10.5598 108.141 3.9882 95.8459 1.32582 82.4612C-1.33656 69.0765 0.0298657 55.2029 5.25231 42.5948C10.4748 29.9867 19.3187 19.2104 30.6657 11.6286C42.0126 4.04678 55.3531 -1.62738e-07 69 0C82.6469 1.62738e-07 95.9874 4.04678 107.334 11.6286C118.681 19.2104 127.525 29.9867 132.748 42.5948C137.97 55.2029 139.337 69.0765 136.674 82.4612C134.012 95.8459 127.44 108.141 117.79 117.79L110.785 110.785C119.049 102.521 124.677 91.9914 126.957 80.5285C129.238 69.0656 128.067 57.1839 123.595 46.3861C119.122 35.5883 111.548 26.3592 101.83 19.866C92.1125 13.3728 80.6875 9.90707 69 9.90707C57.3125 9.90707 45.8875 13.3728 36.1697 19.866C26.4519 26.3592 18.8779 35.5883 14.4052 46.3861C9.93264 57.1839 8.76241 69.0656 11.0425 80.5285C13.3226 91.9914 18.9507 102.521 27.215 110.785L20.2096 117.79Z" stroke="#7FFF00" stroke-width="12" mask="url(#path-1-inside-1_1_412)"/>
</svg>
