<svg width="8" height="6" viewBox="0 0 8 6" fill="none" xmlns="http://www.w3.org/2000/svg">
<path d="M7.52376 1.50061H3.5451V0.500745C3.54525 0.405666 3.51957 0.312514 3.47107 0.232217C3.42256 0.151919 3.35325 0.0878057 3.27127 0.0473971C3.18928 0.00698845 3.09802 -0.00803975 3.00818 0.00407543C2.91834 0.0161906 2.83366 0.0549468 2.76407 0.115798L0.344757 2.23051C0.236898 2.32433 0.150079 2.44197 0.0904876 2.57505C0.0308964 2.70812 0 2.85336 0 3.0004C0 3.14745 0.0308964 3.29268 0.0904876 3.42576C0.150079 3.55884 0.236898 3.67648 0.344757 3.7703L2.76407 5.88501C2.84975 5.95954 2.95759 6.00022 3.06886 5.99999C3.13785 6.00038 3.2061 5.98503 3.26888 5.955C3.35155 5.91484 3.42151 5.85063 3.47047 5.77C3.51943 5.68936 3.54533 5.59568 3.5451 5.50006V4.5002H7.52376C7.65007 4.5002 7.7712 4.44753 7.86051 4.35377C7.94983 4.26002 8 4.13286 8 4.00027V2.00054C8 1.86795 7.94983 1.74079 7.86051 1.64703C7.7712 1.55328 7.65007 1.50061 7.52376 1.50061Z" fill="white" fill-opacity="0.16"/>
</svg>
