<svg width="21" height="21" viewBox="0 0 21 21" fill="none" xmlns="http://www.w3.org/2000/svg">
<path d="M19.7694 15.3848C18.5424 14.354 17.1811 13.562 15.7522 12.9811C15.5102 11.068 14.961 9.3737 14.1889 8.05832L18.1527 4.09459C18.479 3.76826 18.479 3.24075 18.1527 2.91441C17.8263 2.58808 17.2988 2.58808 16.9725 2.91441L13.184 6.70204C12.9119 6.40991 12.6257 6.14868 12.3244 5.93584C12.9754 5.3257 13.3894 4.46521 13.3894 3.50452C13.3894 1.66331 11.892 0.165955 10.0508 0.165955C8.20959 0.165955 6.71223 1.66331 6.71223 3.50452C6.71223 4.46521 7.12621 5.3257 7.77723 5.93584C6.04951 7.15444 4.7675 9.73932 4.35435 12.9485C2.90958 13.5328 1.54243 14.3382 0.323838 15.3932C-0.0250303 15.6945 -0.06345 16.222 0.238704 16.5701C0.539176 16.9189 1.06751 16.9573 1.41555 16.6552C2.27773 15.9098 3.22257 15.3031 4.21914 14.8231C4.21663 14.9458 4.2083 15.0652 4.2083 15.1895C4.2083 16.7244 4.40361 18.2034 4.79004 19.5873C4.89019 19.9478 5.21903 20.1974 5.5938 20.1974H8.3815C8.84222 20.1974 9.21613 19.8235 9.21613 19.3628L9.20944 16.3764C9.67349 15.9132 10.4289 15.9132 10.8854 16.3597V19.3627C10.8854 19.8234 11.2593 20.1974 11.72 20.1974H14.5077C14.8825 20.1974 15.2113 19.9478 15.3115 19.5872C15.6979 18.2034 15.8932 16.7244 15.8932 15.1895C15.8932 15.0768 15.8857 14.9683 15.884 14.8565C16.8756 15.3339 17.8238 15.9306 18.6943 16.6635C18.8512 16.7945 19.0415 16.8588 19.2318 16.8588C19.4697 16.8588 19.705 16.7578 19.8711 16.5616C20.1675 16.2086 20.1216 15.682 19.7694 15.3848ZM7.88318 12.0037C7.29808 12.0855 6.71552 12.1898 6.14376 12.34C6.74052 9.17089 8.28713 6.84309 10.0507 6.84309C10.7577 6.84309 11.4296 7.21617 12.0196 7.86637L7.88318 12.0037ZM10.3863 11.861L12.9653 9.28192C13.4035 10.1483 13.7466 11.2033 13.9636 12.3693C12.7917 12.0554 11.5898 11.891 10.3863 11.861Z" fill="white" fill-opacity="0.16"/>
</svg>
