<svg width="17" height="13" viewBox="0 0 17 13" fill="none" xmlns="http://www.w3.org/2000/svg">
<path d="M10.9128 9.24353H16.5153V10.4941H10.7211C10.7915 10.1099 10.8576 9.69062 10.9128 9.24353ZM11.0651 6.83625C11.0651 7.0474 11.0613 7.25586 11.0544 7.46151H16.5153V6.21098H11.0544C11.0613 6.41651 11.0651 6.6251 11.0651 6.83625ZM10.7037 3.08464C10.7756 3.46737 10.8437 3.88674 10.901 4.33517H16.5153V3.08464H10.7037ZM8.96817 12.5157C9.00409 12.4115 9.84713 9.92803 9.84713 6.83625C9.84713 3.74447 9.00409 1.26086 8.96817 1.15669L8.81498 0.711792L8.35635 0.741101C8.28213 0.745864 6.51804 0.865911 4.72884 1.63663C2.24089 2.70813 0.925781 4.50614 0.925781 6.83625C0.925781 9.16623 2.24089 10.9642 4.72884 12.0359C6.51804 12.8065 8.28201 12.9266 8.35623 12.9314L8.81498 12.9607L8.96817 12.5157ZM8.6292 6.83625C8.6292 8.953 8.19269 10.7991 7.96088 11.6304C7.3562 11.5466 6.25625 11.3418 5.17427 10.8717C3.16337 9.99751 2.14371 8.63988 2.14371 6.83625C2.14371 5.03262 3.16337 3.67486 5.17427 2.80082C6.25661 2.33041 7.35703 2.12561 7.96136 2.04195C8.19341 2.87141 8.6292 4.71253 8.6292 6.83625Z" fill="white" fill-opacity="0.24"/>
<path d="M8.6292 6.83625C8.6292 8.953 8.19269 10.7991 7.96088 11.6304C7.3562 11.5466 6.25625 11.3418 5.17427 10.8717C3.16337 9.99751 2.14371 8.63988 2.14371 6.83625C2.14371 5.03262 3.16337 3.67486 5.17427 2.80082C6.25661 2.33041 7.35703 2.12561 7.96136 2.04195C8.19341 2.87141 8.6292 4.71253 8.6292 6.83625Z" fill="white" fill-opacity="0.24"/>
</svg>
