<svg width="107" height="21" viewBox="0 0 107 21" fill="none" xmlns="http://www.w3.org/2000/svg">
<mask id="path-1-inside-1_1_13" fill="white">
<path d="M104.252 0.969136C106.923 2.7993 106.911 6.72924 104.091 8.31956C98.028 11.7389 91.249 14.531 83.9685 16.5977C74.3088 19.3398 63.9556 20.7511 53.5 20.7511C43.0444 20.7511 32.6912 19.3398 23.0315 16.5977C15.751 14.531 8.97196 11.7389 2.90885 8.31956C0.0888996 6.72924 0.0770588 2.79929 2.7476 0.969135V0.969135C4.31743 -0.106693 6.37917 -0.0937981 7.99983 0.903804C13.7333 4.43303 20.3063 7.27379 27.4426 9.29955C35.7038 11.6446 44.5581 12.8516 53.5 12.8516C62.4419 12.8516 71.2962 11.6446 79.5574 9.29955C86.6937 7.27379 93.2667 4.43303 99.0002 0.903805C100.621 -0.0937979 102.683 -0.106692 104.252 0.969136V0.969136Z"/>
</mask>
<path d="M104.252 0.969136C106.923 2.7993 106.911 6.72924 104.091 8.31956C98.028 11.7389 91.249 14.531 83.9685 16.5977C74.3088 19.3398 63.9556 20.7511 53.5 20.7511C43.0444 20.7511 32.6912 19.3398 23.0315 16.5977C15.751 14.531 8.97196 11.7389 2.90885 8.31956C0.0888996 6.72924 0.0770588 2.79929 2.7476 0.969135V0.969135C4.31743 -0.106693 6.37917 -0.0937981 7.99983 0.903804C13.7333 4.43303 20.3063 7.27379 27.4426 9.29955C35.7038 11.6446 44.5581 12.8516 53.5 12.8516C62.4419 12.8516 71.2962 11.6446 79.5574 9.29955C86.6937 7.27379 93.2667 4.43303 99.0002 0.903805C100.621 -0.0937979 102.683 -0.106692 104.252 0.969136V0.969136Z" stroke="#FF4848" stroke-width="12" mask="url(#path-1-inside-1_1_13)"/>
</svg>
