<svg width="8" height="6" viewBox="0 0 8 6" fill="none" xmlns="http://www.w3.org/2000/svg">
<path d="M0.476242 1.50061H4.4549V0.500745C4.45475 0.405666 4.48043 0.312514 4.52893 0.232217C4.57744 0.151919 4.64675 0.0878057 4.72873 0.0473971C4.81072 0.00698845 4.90198 -0.00803975 4.99182 0.00407543C5.08166 0.0161906 5.16634 0.0549468 5.23593 0.115798L7.65524 2.23051C7.7631 2.32433 7.84992 2.44197 7.90951 2.57505C7.9691 2.70812 8 2.85336 8 3.0004C8 3.14745 7.9691 3.29268 7.90951 3.42576C7.84992 3.55884 7.7631 3.67648 7.65524 3.7703L5.23593 5.88501C5.15025 5.95954 5.04241 6.00022 4.93114 5.99999C4.86215 6.00038 4.7939 5.98503 4.73112 5.955C4.64845 5.91484 4.57849 5.85063 4.52953 5.77C4.48057 5.68936 4.45467 5.59568 4.4549 5.50006V4.5002H0.476242C0.349935 4.5002 0.2288 4.44753 0.139487 4.35377C0.0501742 4.26002 0 4.13286 0 4.00027V2.00054C0 1.86795 0.0501742 1.74079 0.139487 1.64703C0.2288 1.55328 0.349935 1.50061 0.476242 1.50061Z" fill="white" fill-opacity="0.16"/>
</svg>
