<svg width="15" height="13" viewBox="0 0 15 13" fill="none" xmlns="http://www.w3.org/2000/svg">
<path d="M14.3973 3.08794L13.1491 1.85581C13.1011 1.80842 13.0441 1.77083 12.9814 1.74518C12.9186 1.71953 12.8514 1.70634 12.7835 1.70634C12.7156 1.70634 12.6484 1.71955 12.5857 1.7452C12.5229 1.77085 12.4659 1.80845 12.4179 1.85584C12.3699 1.90324 12.3318 1.9595 12.3059 2.02143C12.2799 2.08335 12.2665 2.14972 12.2665 2.21674C12.2665 2.28377 12.2799 2.35014 12.3059 2.41206C12.3319 2.47398 12.3699 2.53024 12.418 2.57763L13.6661 3.8097C13.7142 3.85698 13.7524 3.91323 13.7784 3.97518C13.8044 4.03713 13.8177 4.10355 13.8175 4.17061V9.36192C13.8175 9.49728 13.7631 9.62709 13.6661 9.72281C13.5691 9.81852 13.4376 9.87229 13.3005 9.87229C13.1634 9.87229 13.0319 9.81852 12.935 9.72281C12.838 9.62709 12.7835 9.49728 12.7835 9.36192V6.81006C12.7831 6.40413 12.6195 6.01495 12.3287 5.72791C12.038 5.44088 11.6437 5.27941 11.2325 5.27895H10.1985V2.21672C10.1981 1.81079 10.0345 1.42161 9.74374 1.13457C9.45297 0.847535 9.05874 0.686072 8.64754 0.685608H3.47754C3.06634 0.686072 2.67211 0.847535 2.38134 1.13457C2.09058 1.42161 1.92702 1.81079 1.92655 2.21672V11.9138H0.892549C0.755432 11.9138 0.623931 11.9675 0.526975 12.0633C0.430019 12.159 0.375549 12.2888 0.375549 12.4241C0.375549 12.5595 0.430019 12.6893 0.526975 12.785C0.623931 12.8807 0.755432 12.9345 0.892549 12.9345H11.2325C11.3696 12.9345 11.5012 12.8807 11.5981 12.785C11.6951 12.6893 11.7495 12.5595 11.7495 12.4241C11.7495 12.2888 11.6951 12.159 11.5981 12.0633C11.5012 11.9675 11.3696 11.9138 11.2325 11.9138H10.1985V6.29969H11.2325C11.3696 6.29985 11.501 6.35367 11.5979 6.44935C11.6949 6.54503 11.7494 6.67475 11.7495 6.81006V9.36192C11.7495 9.76799 11.9129 10.1574 12.2038 10.4446C12.4947 10.7317 12.8892 10.893 13.3005 10.893C13.7119 10.893 14.1064 10.7317 14.3973 10.4446C14.6881 10.1574 14.8515 9.76799 14.8515 9.36192V4.17061C14.8521 3.96946 14.8122 3.7702 14.7342 3.58436C14.6563 3.39852 14.5417 3.22979 14.3973 3.08794ZM8.13054 6.29969H3.99454C3.85743 6.29969 3.72593 6.24592 3.62897 6.15021C3.53201 6.05449 3.47754 5.92468 3.47754 5.78932C3.47754 5.65396 3.53201 5.52415 3.62897 5.42843C3.72593 5.33272 3.85743 5.27895 3.99454 5.27895H8.13054C8.26765 5.27895 8.39915 5.33272 8.49611 5.42843C8.59307 5.52415 8.64754 5.65396 8.64754 5.78932C8.64754 5.92468 8.59307 6.05449 8.49611 6.15021C8.39915 6.24592 8.26765 6.29969 8.13054 6.29969Z" fill="#FFB800"/>
</svg>
