<svg width="18" height="14" viewBox="0 0 18 14" fill="none" xmlns="http://www.w3.org/2000/svg">
<path d="M8.85566 0.554596C5.35746 0.554596 2.51144 3.40061 2.51144 6.89889C2.51144 10.3971 5.35746 13.243 8.85566 13.243C12.3539 13.243 15.1999 10.3971 15.1999 6.89889C15.2 3.40068 12.3539 0.554596 8.85566 0.554596ZM8.85566 12.1433C5.9639 12.1433 3.61125 9.79073 3.61125 6.89896C3.61125 4.00712 5.9639 1.65448 8.85566 1.65448C11.7474 1.65448 14.1001 4.00712 14.1001 6.89896C14.1001 9.79066 11.7475 12.1433 8.85566 12.1433Z" fill="white" fill-opacity="0.16"/>
<path d="M3.55385 1.59723C3.76861 1.38247 3.76861 1.03427 3.55385 0.819514C3.33902 0.604758 2.9909 0.604758 2.77614 0.819514C-0.575934 4.17166 -0.575934 9.62613 2.77614 12.9784C2.88356 13.0858 3.02426 13.1394 3.16503 13.1394C3.30574 13.1394 3.44651 13.0858 3.55385 12.9784C3.76868 12.7636 3.76868 12.4155 3.55393 12.2007C0.630558 9.27728 0.630558 4.5206 3.55385 1.59723Z" fill="white" fill-opacity="0.16"/>
<path d="M14.9349 0.819514C14.7201 0.604758 14.372 0.604758 14.1572 0.819514C13.9425 1.03427 13.9425 1.38247 14.1572 1.59723C17.0807 4.5206 17.0807 9.27728 14.1572 12.2007C13.9425 12.4155 13.9425 12.7637 14.1572 12.9784C14.2646 13.0857 14.4054 13.1394 14.5461 13.1394C14.6868 13.1394 14.8276 13.0858 14.935 12.9784C18.2872 9.62606 18.2872 4.17166 14.9349 0.819514Z" fill="white" fill-opacity="0.16"/>
<path d="M8.85548 8.58539C9.15925 8.58539 9.40538 8.33917 9.40538 8.03548V3.35175C9.40538 3.04806 9.15925 2.80185 8.85548 2.80185C8.55171 2.80185 8.30557 3.04806 8.30557 3.35175V8.03548C8.30557 8.33917 8.55178 8.58539 8.85548 8.58539Z" fill="white" fill-opacity="0.16"/>
<path d="M8.85558 10.446C9.23335 10.446 9.53959 10.1398 9.53959 9.76201C9.53959 9.38424 9.23335 9.078 8.85558 9.078C8.47781 9.078 8.17157 9.38424 8.17157 9.76201C8.17157 10.1398 8.47781 10.446 8.85558 10.446Z" fill="white" fill-opacity="0.16"/>
</svg>
