<svg width="247" height="194" viewBox="0 0 247 194" fill="none" xmlns="http://www.w3.org/2000/svg">
<mask id="path-1-inside-1_1_335" fill="white">
<path d="M22.3386 193.547C9.56373 175.098 2.07739 153.507 0.689621 131.109C-0.698148 108.712 4.0655 86.3615 14.4651 66.4764C24.8647 46.5913 40.5043 29.9287 59.6915 18.2917C78.8788 6.65475 100.883 0.486428 123.323 0.454228C145.764 0.422028 167.786 6.52717 187.006 18.1091C206.227 29.6909 221.914 46.3085 232.371 66.1637C242.827 86.0189 247.655 108.356 246.332 130.757C245.008 153.158 237.584 174.771 224.862 193.257L198.855 175.359C208.313 161.616 213.833 145.549 214.817 128.895C215.801 112.241 212.211 95.6355 204.438 80.8745C196.664 66.1136 185.001 53.7596 170.712 45.1493C156.423 36.5389 140.052 32.0002 123.369 32.0241C106.686 32.0481 90.3273 36.6338 76.0629 45.2851C61.7985 53.9364 50.1716 66.3238 42.4402 81.107C34.7089 95.8902 31.1674 112.506 32.1991 129.157C33.2308 145.808 38.7964 161.86 48.2936 175.575L22.3386 193.547Z"/>
</mask>
<path d="M22.3386 193.547C9.56373 175.098 2.07739 153.507 0.689621 131.109C-0.698148 108.712 4.0655 86.3615 14.4651 66.4764C24.8647 46.5913 40.5043 29.9287 59.6915 18.2917C78.8788 6.65475 100.883 0.486428 123.323 0.454228C145.764 0.422028 167.786 6.52717 187.006 18.1091C206.227 29.6909 221.914 46.3085 232.371 66.1637C242.827 86.0189 247.655 108.356 246.332 130.757C245.008 153.158 237.584 174.771 224.862 193.257L198.855 175.359C208.313 161.616 213.833 145.549 214.817 128.895C215.801 112.241 212.211 95.6355 204.438 80.8745C196.664 66.1136 185.001 53.7596 170.712 45.1493C156.423 36.5389 140.052 32.0002 123.369 32.0241C106.686 32.0481 90.3273 36.6338 76.0629 45.2851C61.7985 53.9364 50.1716 66.3238 42.4402 81.107C34.7089 95.8902 31.1674 112.506 32.1991 129.157C33.2308 145.808 38.7964 161.86 48.2936 175.575L22.3386 193.547Z" stroke="url(#paint0_linear_1_335)" stroke-width="40" mask="url(#path-1-inside-1_1_335)"/>
<defs>
<linearGradient id="paint0_linear_1_335" x1="123.5" y1="0.454102" x2="123.5" y2="246.546" gradientUnits="userSpaceOnUse">
<stop stop-color="white"/>
<stop offset="0.895849" stop-opacity="0"/>
</linearGradient>
</defs>
</svg>
