<svg width="178" height="178" viewBox="0 0 178 178" fill="none" xmlns="http://www.w3.org/2000/svg">
<circle cx="88.5262" cy="88.5262" r="88.5262" fill="url(#paint0_linear_163_7)" fill-opacity="0.6"/>
<path d="M161.056 138.881C170.154 125.736 175.482 110.352 176.462 94.3958C177.442 78.4394 174.036 62.5191 166.615 48.3597C159.194 34.2003 148.039 22.3416 134.36 14.0686C120.68 5.79551 104.998 1.42349 89.0116 1.42619C73.0252 1.42888 57.3442 5.80618 43.6677 14.0838C29.9912 22.3615 18.8406 34.2239 11.424 48.3858C4.00743 62.5478 0.607605 78.4692 1.59291 94.4253C2.57821 110.381 7.91107 125.764 17.0137 138.905" stroke="#4DFF0F" stroke-opacity="0.25" stroke-width="1.2" stroke-dasharray="1.2 7.2"/>
<path d="M0.0263672 86.0262H45.1514H64.226C65.5891 86.0262 66.2707 86.0262 66.9296 85.8759C67.5885 85.7255 68.2026 85.4299 69.4308 84.8387L83.5715 78.0317C86.1288 76.8007 87.4074 76.1852 88.7764 76.1852C90.1453 76.1852 91.424 76.8007 93.9812 78.0317L108.122 84.8387C109.35 85.4299 109.964 85.7255 110.623 85.8759C111.282 86.0262 111.964 86.0262 113.327 86.0262H132.401H177.026" stroke="#FF4848" stroke-width="2"/>
<defs>
<linearGradient id="paint0_linear_163_7" x1="88.5262" y1="0" x2="88.5262" y2="177.052" gradientUnits="userSpaceOnUse">
<stop/>
<stop offset="1" stop-opacity="0"/>
</linearGradient>
</defs>
</svg>
