<svg width="81" height="81" viewBox="0 0 81 81" fill="none" xmlns="http://www.w3.org/2000/svg">
<path d="M77 40.5C77 60.6584 60.6584 77 40.5 77C20.3416 77 4 60.6584 4 40.5C4 20.3416 20.3416 4 40.5 4C60.6584 4 77 20.3416 77 40.5ZM13.3648 40.5C13.3648 55.4863 25.5137 67.6352 40.5 67.6352C55.4863 67.6352 67.6352 55.4863 67.6352 40.5C67.6352 25.5137 55.4863 13.3648 40.5 13.3648C25.5137 13.3648 13.3648 25.5137 13.3648 40.5Z" fill="url(#paint0_linear_1_71)" fill-opacity="0.6"/>
<path d="M81 40.5C81 62.8675 62.8675 81 40.5 81C18.1325 81 0 62.8675 0 40.5C0 18.1325 18.1325 0 40.5 0C62.8675 0 81 18.1325 81 40.5ZM2.75297 40.5C2.75297 61.3471 19.6529 78.247 40.5 78.247C61.3471 78.247 78.247 61.3471 78.247 40.5C78.247 19.6529 61.3471 2.75297 40.5 2.75297C19.6529 2.75297 2.75297 19.6529 2.75297 40.5Z" fill="#D9D9D9"/>
<path d="M70.1834 62.0453C73.9327 56.6282 76.1283 50.2885 76.5321 43.7128C76.9359 37.1372 75.5327 30.5764 72.4743 24.7413C69.416 18.9062 64.8191 14.0193 59.1819 10.6099C53.5447 7.2006 47.0819 5.39889 40.4939 5.4C33.9059 5.40111 27.4438 7.205 21.8077 10.6162C16.1716 14.0275 11.5764 18.916 8.52004 24.7521C5.46366 30.5882 4.06259 37.1495 4.46863 43.725C4.87468 50.3005 7.07235 56.6395 10.8236 62.0553" stroke="white" stroke-opacity="0.25" stroke-width="1.2" stroke-dasharray="1.2 7.2"/>
<path d="M70.1834 62.0453C73.9327 56.6282 76.1283 50.2885 76.5321 43.7128C76.9359 37.1372 75.5327 30.5764 72.4743 24.7413C69.416 18.9062 64.8191 14.0193 59.1819 10.6099C53.5447 7.2006 47.0819 5.39889 40.4939 5.4C33.9059 5.40111 27.4438 7.205 21.8077 10.6162C16.1716 14.0275 11.5764 18.916 8.52004 24.7521C5.46366 30.5882 4.06259 37.1495 4.46863 43.725C4.87468 50.3005 7.07235 56.6395 10.8236 62.0553" stroke="white" stroke-width="1.2" stroke-dasharray="1.2 14"/>
<defs>
<linearGradient id="paint0_linear_1_71" x1="40.5" y1="4" x2="40.5" y2="77" gradientUnits="userSpaceOnUse">
<stop/>
<stop offset="1" stop-opacity="0"/>
</linearGradient>
</defs>
</svg>
