<svg width="81" height="81" viewBox="0 0 81 81" fill="none" xmlns="http://www.w3.org/2000/svg">
<path d="M77 40.5C77 60.6584 60.6584 77 40.5 77C20.3416 77 4 60.6584 4 40.5C4 20.3416 20.3416 4 40.5 4C60.6584 4 77 20.3416 77 40.5ZM13.3648 40.5C13.3648 55.4863 25.5137 67.6352 40.5 67.6352C55.4863 67.6352 67.6352 55.4863 67.6352 40.5C67.6352 25.5137 55.4863 13.3648 40.5 13.3648C25.5137 13.3648 13.3648 25.5137 13.3648 40.5Z" fill="url(#paint0_linear_1_82)" fill-opacity="0.6"/>
<path d="M70.2706 61.6178C74.2149 56.0574 76.5231 49.5035 76.9337 42.6986C77.3444 35.8936 75.841 29.1097 72.594 23.1153L64.3596 27.5757C66.7735 32.0321 67.8912 37.0755 67.5859 42.1345C67.2806 47.1935 65.5646 52.0658 62.6323 56.1996L70.2706 61.6178Z" fill="url(#paint1_linear_1_82)" fill-opacity="0.6"/>
<circle cx="40.5" cy="40.5" r="26.5" fill="url(#paint2_linear_1_82)" fill-opacity="0.6"/>
<path d="M81 40.5C81 62.8675 62.8675 81 40.5 81C18.1325 81 0 62.8675 0 40.5C0 18.1325 18.1325 0 40.5 0C62.8675 0 81 18.1325 81 40.5ZM2.75297 40.5C2.75297 61.3471 19.6529 78.247 40.5 78.247C61.3471 78.247 78.247 61.3471 78.247 40.5C78.247 19.6529 61.3471 2.75297 40.5 2.75297C19.6529 2.75297 2.75297 19.6529 2.75297 40.5Z" fill="#D9D9D9"/>
<path d="M70.1834 62.0453C73.9327 56.6282 76.1283 50.2885 76.5321 43.7128C76.9359 37.1372 75.5327 30.5764 72.4743 24.7413C69.416 18.9062 64.8191 14.0193 59.1819 10.6099C53.5447 7.2006 47.0819 5.39889 40.4939 5.4C33.9059 5.40111 27.4438 7.205 21.8077 10.6162C16.1716 14.0275 11.5764 18.916 8.52004 24.7521C5.46366 30.5882 4.06259 37.1495 4.46863 43.725C4.87468 50.3005 7.07235 56.6395 10.8236 62.0553" stroke="white" stroke-opacity="0.25" stroke-width="1.2" stroke-dasharray="1.2 7.2"/>
<path d="M70.1834 62.0453C73.9327 56.6282 76.1283 50.2885 76.5321 43.7128C76.9359 37.1372 75.5327 30.5764 72.4743 24.7413C69.416 18.9062 64.8191 14.0193 59.1819 10.6099C53.5447 7.2006 47.0819 5.39889 40.4939 5.4C33.9059 5.40111 27.4438 7.205 21.8077 10.6162C16.1716 14.0275 11.5764 18.916 8.52004 24.7521C5.46366 30.5882 4.06259 37.1495 4.46863 43.725C4.87468 50.3005 7.07235 56.6395 10.8236 62.0553" stroke="white" stroke-width="1.2" stroke-dasharray="1.2 14"/>
<path d="M16.52 62.112C17.968 62.112 18.8 60.928 18.8 59.2C18.8 57.472 17.968 56.288 16.52 56.288C15.072 56.288 14.24 57.472 14.24 59.2C14.24 60.928 15.072 62.112 16.52 62.112ZM16.52 60.864C15.848 60.864 15.52 60.28 15.52 59.2C15.52 58.12 15.848 57.536 16.52 57.536C17.192 57.536 17.52 58.12 17.52 59.2C17.52 60.28 17.192 60.864 16.52 60.864Z" fill="white"/>
<path d="M9.544 40.4L8.08 40.928L8.392 42.024L9.384 41.752V46H10.664V40.4H9.544Z" fill="white"/>
<path d="M12.176 31H15.984V29.768H14.104L15.032 28.832C15.544 28.32 15.904 27.744 15.904 27.072C15.904 25.944 15.008 25.288 14.008 25.288C13.232 25.288 12.48 25.68 12.12 26.512L13.2 27.144C13.352 26.792 13.632 26.536 14.024 26.536C14.4 26.536 14.624 26.776 14.624 27.128C14.624 27.456 14.384 27.784 14.056 28.12L12.176 30.072V31Z" fill="white"/>
<path d="M25.968 16.672L26.936 15.44V14.4H23.336V15.6H25.384L24.368 16.888L24.856 17.616H25.12C25.648 17.616 25.88 17.896 25.88 18.24C25.88 18.584 25.648 18.864 25.12 18.864C24.632 18.864 24.392 18.64 24.264 18.272L23.16 18.912C23.504 19.736 24.272 20.112 25.12 20.112C26.2 20.112 27.16 19.472 27.16 18.24C27.16 17.464 26.656 16.912 25.968 16.672Z" fill="white"/>
<path d="M42.56 12.92H42V11.72H40.704V12.92H39.536L41.32 9.4H39.944L38.16 12.92V14.104H40.704V15H42V14.104H42.56V12.92Z" fill="white"/>
<path d="M55.28 14.368H54.824L54.88 13.6H56.92V12.4H53.68L53.448 15.616H55.2C55.688 15.616 55.92 15.896 55.92 16.24C55.92 16.584 55.688 16.864 55.16 16.864C54.632 16.864 54.392 16.64 54.264 16.272L53.16 16.912C53.504 17.736 54.272 18.112 55.16 18.112C56.24 18.112 57.2 17.472 57.2 16.24C57.2 15.008 56.32 14.368 55.28 14.368Z" fill="white"/>
<path d="M66.456 25.168L67.672 23.4H66.2L64.488 26C64.28 26.312 64.16 26.704 64.16 27.136C64.16 28.296 65 29.112 66.24 29.112C67.472 29.112 68.32 28.296 68.32 27.136C68.32 26.048 67.568 25.256 66.456 25.168ZM66.24 27.912C65.808 27.912 65.44 27.632 65.44 27.136C65.44 26.64 65.808 26.36 66.24 26.36C66.664 26.36 67.04 26.648 67.04 27.136C67.04 27.624 66.664 27.912 66.24 27.912Z" fill="white"/>
<path d="M67.08 40.4V41.632H69.336L67.576 46H68.936L70.76 41.472V40.4H67.08Z" fill="white"/>
<path d="M67.624 57.08C67.952 56.824 68.16 56.456 68.16 55.952C68.16 54.864 67.328 54.288 66.296 54.288C65.264 54.288 64.432 54.864 64.432 55.952C64.432 56.456 64.64 56.824 64.968 57.08C64.496 57.384 64.24 57.872 64.24 58.424C64.24 59.448 64.976 60.112 66.296 60.112C67.616 60.112 68.352 59.448 68.352 58.424C68.352 57.872 68.096 57.384 67.624 57.08ZM66.296 55.488C66.656 55.488 66.88 55.72 66.88 56.032C66.88 56.344 66.656 56.576 66.296 56.576C65.936 56.576 65.712 56.344 65.712 56.032C65.712 55.72 65.936 55.488 66.296 55.488ZM66.296 58.912C65.848 58.912 65.52 58.664 65.52 58.24C65.52 57.816 65.848 57.568 66.296 57.568C66.744 57.568 67.072 57.816 67.072 58.24C67.072 58.664 66.744 58.912 66.296 58.912Z" fill="white"/>
<defs>
<linearGradient id="paint0_linear_1_82" x1="40.5" y1="4" x2="40.5" y2="77" gradientUnits="userSpaceOnUse">
<stop/>
<stop offset="1" stop-opacity="0"/>
</linearGradient>
<linearGradient id="paint1_linear_1_82" x1="40.5" y1="4" x2="40.5" y2="77" gradientUnits="userSpaceOnUse">
<stop stop-color="#FF0000"/>
<stop offset="1" stop-color="#FF0000" stop-opacity="0"/>
</linearGradient>
<linearGradient id="paint2_linear_1_82" x1="40.5" y1="14" x2="40.5" y2="67" gradientUnits="userSpaceOnUse">
<stop/>
<stop offset="1" stop-opacity="0"/>
</linearGradient>
</defs>
</svg>
