<svg width="255" height="255" viewBox="0 0 255 255" fill="none" xmlns="http://www.w3.org/2000/svg">
<path d="M250.546 127.5C250.546 195.456 195.456 250.546 127.5 250.546C59.5437 250.546 4.45415 195.456 4.45415 127.5C4.45415 59.5437 59.5437 4.45416 127.5 4.45416C195.456 4.45416 250.546 59.5437 250.546 127.5ZM36.0241 127.5C36.0241 178.021 76.9793 218.976 127.5 218.976C178.021 218.976 218.976 178.021 218.976 127.5C218.976 76.9793 178.021 36.0241 127.5 36.0241C76.9793 36.0241 36.0241 76.9793 36.0241 127.5Z" fill="url(#paint0_linear_109_4)" fill-opacity="0.6"/>
<path d="M250.546 127.5C250.546 195.456 195.456 250.546 127.5 250.546C59.5436 250.546 4.4541 195.456 4.4541 127.5C4.4541 59.5437 59.5436 4.45416 127.5 4.45416C195.456 4.45416 250.546 59.5437 250.546 127.5ZM36.024 127.5C36.024 178.021 76.9792 218.976 127.5 218.976C178.021 218.976 218.976 178.021 218.976 127.5C218.976 76.9793 178.021 36.0241 127.5 36.0241C76.9792 36.0241 36.024 76.9793 36.024 127.5Z" fill="url(#paint1_linear_109_4)" fill-opacity="0.6"/>
<circle cx="127.5" cy="127.5" r="88.5262" fill="url(#paint2_linear_109_4)" fill-opacity="0.6"/>
<path d="M255 127.5C255 197.916 197.916 255 127.5 255C57.0837 255 0 197.916 0 127.5C0 57.0837 57.0837 0 127.5 0C197.916 0 255 57.0837 255 127.5ZM3.83912 127.5C3.83912 195.796 59.204 251.161 127.5 251.161C195.796 251.161 251.161 195.796 251.161 127.5C251.161 59.204 195.796 3.83912 127.5 3.83912C59.204 3.83912 3.83912 59.204 3.83912 127.5Z" fill="#D9D9D9"/>
<path d="M228.535 197.602C241.226 179.266 248.658 157.806 250.025 135.547C251.392 113.289 246.642 91.0805 236.29 71.3287C225.937 51.5769 210.377 35.0346 191.295 23.4941C172.213 11.9535 150.337 5.85474 128.036 5.8585C105.736 5.86226 83.8616 11.9684 64.7835 23.5154C45.7053 35.0624 30.1507 51.6099 19.8049 71.3652C9.45904 91.1205 4.71643 113.33 6.09089 135.588C7.46535 157.846 14.9045 179.304 27.6023 197.636" stroke="white" stroke-opacity="0.25" stroke-width="1.2" stroke-dasharray="1.2 7.2"/>
<rect x="9.25122" y="162.211" width="7.45922" height="2.15135" transform="rotate(-17.8345 9.25122 162.211)" fill="white"/>
<rect opacity="0.55" x="3.78076" y="124.575" width="7.45922" height="2.15135" transform="rotate(-0.351556 3.78076 124.575)" fill="white"/>
<rect x="11.4797" y="86.9703" width="7.25946" height="2.14488" transform="rotate(19.3099 11.4797 86.9703)" fill="white"/>
<rect opacity="0.55" x="29.7161" y="53.187" width="6.86244" height="2.15135" transform="rotate(36.4221 29.7161 53.187)" fill="white"/>
<rect x="57.3521" y="26.6525" width="7.25977" height="2.15135" transform="rotate(53.5513 57.3521 26.6525)" fill="white"/>
<rect opacity="0.55" x="90.8833" y="10.1801" width="7.14361" height="2.15135" transform="rotate(71.7033 90.8833 10.1801)" fill="white"/>
<path d="M128.725 4.45416L128.725 11.7191L126.574 11.7191L126.574 4.45416L128.725 4.45416Z" fill="white"/>
<path d="M200.837 27.8052L197.542 33.1834L195.819 31.8947L199.34 27.0209L200.837 27.8052Z" fill="white"/>
<path opacity="0.55" d="M228.348 55.3578L222.93 59.9083L221.593 57.904L226.938 53.8953L228.348 55.3578Z" fill="white"/>
<path d="M245.67 89.4075L239.633 91.3101L239.058 89.6946L245.096 87.792L245.67 89.4075Z" fill="white"/>
<path opacity="0.55" d="M251.657 127.429L244.491 127.389L244.48 125.59L251.645 125.631L251.657 127.429Z" fill="white"/>
<path d="M246.295 164.855L239.068 162.401L239.59 160.758L246.855 163.127L246.295 164.855Z" fill="white"/>
<path opacity="0.55" d="M166.808 10.4674L164.791 16.4762L162.857 15.612L164.73 9.89822L166.808 10.4674Z" fill="white"/>
<defs>
<linearGradient id="paint0_linear_109_4" x1="127.5" y1="4.45416" x2="127.5" y2="250.546" gradientUnits="userSpaceOnUse">
<stop/>
<stop offset="1" stop-opacity="0"/>
</linearGradient>
<linearGradient id="paint1_linear_109_4" x1="127.5" y1="4.45416" x2="127.5" y2="250.546" gradientUnits="userSpaceOnUse">
<stop/>
<stop offset="1" stop-opacity="0"/>
</linearGradient>
<linearGradient id="paint2_linear_109_4" x1="127.5" y1="38.9738" x2="127.5" y2="216.026" gradientUnits="userSpaceOnUse">
<stop/>
<stop offset="1" stop-opacity="0"/>
</linearGradient>
</defs>
</svg>
