<svg width="81" height="81" viewBox="0 0 81 81" fill="none" xmlns="http://www.w3.org/2000/svg">
<path d="M77 40.5C77 60.6584 60.6584 77 40.5 77C20.3416 77 4 60.6584 4 40.5C4 20.3416 20.3416 4 40.5 4C60.6584 4 77 20.3416 77 40.5ZM13.3648 40.5C13.3648 55.4863 25.5137 67.6352 40.5 67.6352C55.4863 67.6352 67.6352 55.4863 67.6352 40.5C67.6352 25.5137 55.4863 13.3648 40.5 13.3648C25.5137 13.3648 13.3648 25.5137 13.3648 40.5Z" fill="url(#paint0_linear_1_303)" fill-opacity="0.6"/>
<circle cx="40.5" cy="40.5" r="25.5" fill="url(#paint1_linear_1_303)" fill-opacity="0.6"/>
<path d="M81 40.5C81 62.8675 62.8675 81 40.5 81C18.1325 81 0 62.8675 0 40.5C0 18.1325 18.1325 0 40.5 0C62.8675 0 81 18.1325 81 40.5ZM2.75297 40.5C2.75297 61.3471 19.6529 78.247 40.5 78.247C61.3471 78.247 78.247 61.3471 78.247 40.5C78.247 19.6529 61.3471 2.75297 40.5 2.75297C19.6529 2.75297 2.75297 19.6529 2.75297 40.5Z" fill="#D9D9D9"/>
<path d="M70.1834 62.0453C73.9327 56.6282 76.1283 50.2885 76.5321 43.7128C76.9359 37.1372 75.5327 30.5764 72.4743 24.7413C69.416 18.9062 64.8191 14.0193 59.1819 10.6099C53.5447 7.2006 47.0819 5.39889 40.4939 5.4C33.9059 5.40111 27.4438 7.205 21.8077 10.6162C16.1716 14.0275 11.5764 18.916 8.52004 24.7521C5.46366 30.5882 4.06259 37.1495 4.46863 43.725C4.87468 50.3005 7.07235 56.6395 10.8236 62.0553" stroke="white" stroke-opacity="0.25" stroke-width="1.2" stroke-dasharray="1.2 7.2"/>
<path d="M70.1834 62.0453C73.9327 56.6282 76.1283 50.2885 76.5321 43.7128C76.9359 37.1372 75.5327 30.5764 72.4743 24.7413C69.416 18.9062 64.8191 14.0193 59.1819 10.6099C53.5447 7.2006 47.0819 5.39889 40.4939 5.4C33.9059 5.40111 27.4438 7.205 21.8077 10.6162C16.1716 14.0275 11.5764 18.916 8.52004 24.7521C5.46366 30.5882 4.06259 37.1495 4.46863 43.725C4.87468 50.3005 7.07235 56.6395 10.8236 62.0553" stroke="white" stroke-width="1.2" stroke-dasharray="1.2 14"/>
<path d="M45.1488 70.9953C43.5014 70.9953 42.1567 69.6506 42.1567 68.0033V67.6513C42.1567 67.3626 42.3961 67.1233 42.6847 67.1233C42.9734 67.1233 43.2127 67.3626 43.2127 67.6513V68.0033C43.2127 69.0733 44.0787 69.9393 45.1488 69.9393C46.2188 69.9393 47.0848 69.0733 47.0848 68.0033C47.0848 66.9332 46.2188 66.0672 45.1488 66.0672H33.5326C33.244 66.0672 33.0046 65.8279 33.0046 65.5392C33.0046 65.2506 33.244 65.0112 33.5326 65.0112H45.1488C46.7961 65.0112 48.1408 66.3559 48.1408 68.0033C48.1408 69.6506 46.7961 70.9953 45.1488 70.9953Z" fill="#DBEBFF"/>
<path opacity="0.4" d="M45.1488 63.9554H33.5326C33.244 63.9554 33.0046 63.716 33.0046 63.4274C33.0046 63.1387 33.244 62.8994 33.5326 62.8994H45.1488C46.2188 62.8994 47.0848 62.0334 47.0848 60.9633C47.0848 59.8933 46.2188 59.0273 45.1488 59.0273C44.0787 59.0273 43.2127 59.8933 43.2127 60.9633V61.3153C43.2127 61.604 42.9734 61.8433 42.6847 61.8433C42.3961 61.8433 42.1567 61.604 42.1567 61.3153V60.9633C42.1567 59.316 43.5014 57.9713 45.1488 57.9713C46.7961 57.9713 48.1408 59.316 48.1408 60.9633C48.1408 62.6107 46.7961 63.9554 45.1488 63.9554Z" fill="#DBEBFF"/>
<path d="M38.6789 61.8436H33.5326C33.244 61.8436 33.0046 61.6042 33.0046 61.3156C33.0046 61.0269 33.244 60.7876 33.5326 60.7876H38.6789C39.4322 60.7876 40.0447 60.1751 40.0447 59.4218C40.0447 58.6685 39.4322 58.056 38.6789 58.056C37.9256 58.056 37.3132 58.6685 37.3132 59.4218V59.6893C37.3132 59.9779 37.0738 60.2173 36.7852 60.2173C36.4965 60.2173 36.2571 59.985 36.2571 59.6893V59.4218C36.2571 58.0842 37.3413 57 38.6789 57C40.0165 57 41.1007 58.0842 41.1007 59.4218C41.1007 60.7594 40.0165 61.8436 38.6789 61.8436Z" fill="#DBEBFF"/>
<defs>
<linearGradient id="paint0_linear_1_303" x1="40.5" y1="4" x2="40.5" y2="77" gradientUnits="userSpaceOnUse">
<stop/>
<stop offset="1" stop-opacity="0"/>
</linearGradient>
<linearGradient id="paint1_linear_1_303" x1="40.5" y1="15" x2="40.5" y2="66" gradientUnits="userSpaceOnUse">
<stop/>
<stop offset="1" stop-opacity="0"/>
</linearGradient>
</defs>
</svg>
