<svg class="svg" width="320" height="20" xmlns="http://www.w3.org/2000/svg">
    <rect width="2" height="6" x="-90"/>
    <rect width="2" height="4" x="-81"/>
    <rect width="2" height="4" x="-72"/>
    <rect width="2" height="4" x="-63"/>
    <rect width="2" height="4" x="-54"/>
    <rect width="2" height="6" x="-45"/>
    <rect width="2" height="4" x="-36"/>
    <rect width="2" height="4" x="-27"/>
    <rect width="2" height="4" x="-18"/>
    <rect width="2" height="4" x="-9"/>
    <rect width="2" height="6" x="0"/>
    <rect width="2" height="4" x="9"/>
    <rect width="2" height="4" x="18"/>
    <rect width="2" height="4" x="27"/>
    <rect width="2" height="4" x="36"/>
    <rect width="2" height="6" x="45"/>
    <rect width="2" height="4" x="54"/>
    <rect width="2" height="4" x="63"/>
    <rect width="2" height="4" x="72"/>
    <rect width="2" height="4" x="81"/>
    <rect width="2" height="6" x="90"/>
    <rect width="2" height="4" x="99"/>
    <rect width="2" height="4" x="108"/>
    <rect width="2" height="4" x="117"/>
    <rect width="2" height="4" x="126"/>
    <rect width="2" height="6" x="135"/>
    <rect width="2" height="4" x="144"/>
    <rect width="2" height="4" x="153"/>
    <rect width="2" height="4" x="162"/>
    <rect width="2" height="4" x="171"/>
    <rect width="2" height="6" x="180"/>
    <rect width="2" height="4" x="189"/>
    <rect width="2" height="4" x="198"/>
    <rect width="2" height="4" x="207"/>
    <rect width="2" height="4" x="216"/>
    <rect width="2" height="6" x="225"/>
    <rect width="2" height="4" x="234"/>
    <rect width="2" height="4" x="243"/>
    <rect width="2" height="4" x="252"/>
    <rect width="2" height="4" x="261"/>
    <rect width="2" height="6" x="270"/>
    <rect width="2" height="4" x="279"/>
    <rect width="2" height="4" x="288"/>
    <rect width="2" height="4" x="297"/>
    <rect width="2" height="4" x="306"/>
    <rect width="2" height="6" x="315"/>
    <rect width="2" height="4" x="324"/>
    <rect width="2" height="4" x="333"/>
    <rect width="2" height="4" x="342"/>
    <rect width="2" height="4" x="351"/>
    <rect width="2" height="6" x="360"/>
    <rect width="2" height="4" x="369"/>
    <rect width="2" height="4" x="378"/>
    <rect width="2" height="4" x="387"/>
    <rect width="2" height="4" x="396"/>
    <rect width="2" height="6" x="405"/>
    <rect width="2" height="4" x="414"/>
    <rect width="2" height="4" x="423"/>
    <rect width="2" height="4" x="432"/>
    <rect width="2" height="4" x="441"/>
    <rect width="2" height="6" x="450"/>
</svg>