<svg width="17" height="16" viewBox="0 0 17 16" fill="none" xmlns="http://www.w3.org/2000/svg">
<path fill-rule="evenodd" clip-rule="evenodd" d="M2.05807 5.63252C2.12456 5.59594 2.19186 5.56075 2.25975 5.52736C2.61005 5.35511 3.03734 5.19999 3.47727 5.19999C4.59636 5.19999 5.37417 5.92418 5.81931 6.50023C5.84083 6.52807 5.86182 6.55591 5.88229 6.58359C5.92699 6.53415 5.9735 6.48431 6.02178 6.43431C6.54719 5.89035 7.41262 5.19999 8.5 5.19999C9.58738 5.19999 10.4528 5.89035 10.9782 6.43431C11.0265 6.48431 11.073 6.53415 11.1177 6.58359C11.1382 6.55591 11.1592 6.52807 11.1807 6.50023C11.6258 5.92418 12.4037 5.19999 13.5227 5.19999C13.9626 5.19999 14.39 5.35511 14.7402 5.52736C14.8082 5.56075 14.8755 5.59594 14.9419 5.63252C14.5732 4.9037 14.0169 4.1924 13.3096 3.56475C11.9752 2.38055 10.2162 1.6 8.5 1.6C6.78376 1.6 5.02479 2.38055 3.6904 3.56475C2.98314 4.1924 2.42677 4.9037 2.05807 5.63252ZM15.0725 7.63223C14.9979 7.57255 14.919 7.51119 14.8367 7.45015C14.5889 7.26623 14.3262 7.09503 14.0772 6.97263C13.8174 6.84487 13.632 6.79999 13.5227 6.79999C13.0963 6.79999 12.7151 7.07583 12.3875 7.49975C12.2319 7.70111 12.1122 7.90679 12.0313 8.06399C11.9913 8.14159 11.962 8.20495 11.9435 8.24663C11.9344 8.26743 11.928 8.28271 11.9243 8.29151L11.9219 8.29735L10.4722 12.1568L15.0725 7.63223ZM8.5 12.9928L10.3361 8.10479C10.2226 7.94887 10.0693 7.75607 9.88542 7.56567C9.44489 7.10967 8.95807 6.79999 8.5 6.79999C8.04193 6.79999 7.55511 7.10967 7.11458 7.56567C6.93064 7.75607 6.77743 7.94887 6.66391 8.10479L8.5 12.9928ZM5.07806 8.29735L5.07566 8.29151C5.07205 8.28271 5.06564 8.26743 5.05646 8.24663C5.03803 8.20495 5.00874 8.14159 4.96875 8.06399C4.88778 7.90679 4.76811 7.70111 4.61251 7.49975C4.28492 7.07583 3.90364 6.79999 3.47727 6.79999C3.36798 6.79999 3.18259 6.84487 2.9228 6.97263C2.67382 7.09503 2.41112 7.26623 2.16337 7.45015C2.08106 7.51119 2.00203 7.57255 1.92746 7.63223L6.52778 12.1568L5.07806 8.29735ZM11.921 8.29967C11.9209 8.30015 11.9209 8.30015 11.921 8.29967V8.29967ZM2.6846 2.34997C4.24794 0.962591 6.35261 0 8.5 0C10.6474 0 12.7521 0.962591 14.3154 2.34997C15.8676 3.72744 17 5.63061 17 7.59999C17 7.81927 16.9131 8.02895 16.7594 8.17999L9.03218 15.78C8.73398 16.0733 8.26602 16.0733 7.96782 15.78L0.240511 8.17999C0.0869472 8.02895 0 7.81927 0 7.59999C0 5.63061 1.13242 3.72744 2.6846 2.34997Z" fill="#48FF9C"/>
<path d="M2.05807 5.63252C2.12456 5.59594 2.19186 5.56075 2.25975 5.52736C2.61005 5.35511 3.03734 5.19999 3.47727 5.19999C4.59636 5.19999 5.37417 5.92418 5.81931 6.50023C5.84083 6.52807 5.86182 6.55591 5.88229 6.58359C5.92699 6.53415 5.9735 6.48431 6.02178 6.43431C6.54719 5.89035 7.41262 5.19999 8.5 5.19999C9.58738 5.19999 10.4528 5.89035 10.9782 6.43431C11.0265 6.48431 11.073 6.53415 11.1177 6.58359C11.1382 6.55591 11.1592 6.52807 11.1807 6.50023C11.6258 5.92418 12.4037 5.19999 13.5227 5.19999C13.9626 5.19999 14.39 5.35511 14.7402 5.52736C14.8082 5.56075 14.8755 5.59594 14.9419 5.63252C14.5732 4.9037 14.0169 4.1924 13.3096 3.56475C11.9752 2.38055 10.2162 1.6 8.5 1.6C6.78376 1.6 5.02479 2.38055 3.6904 3.56475C2.98314 4.1924 2.42677 4.9037 2.05807 5.63252Z" fill="#48FF9C"/>
</svg>
