<svg width="13" height="15" viewBox="0 0 13 15" fill="none" xmlns="http://www.w3.org/2000/svg">
<path d="M10.285 0H10.089C9.72153 0 9.37711 0.183077 9.16768 0.489815L8.45654 1.53147C8.08382 2.07742 7.49489 2.39048 6.84083 2.39048C6.84072 2.39048 6.84057 2.39048 6.84046 2.39048C6.1862 2.39037 5.59727 2.07706 5.22467 1.53088L4.51456 0.490138C4.30514 0.183223 3.96068 0 3.59307 0H3.47292C3.35537 0 3.26497 0.105674 3.28118 0.223916C3.29584 0.330587 3.30749 0.415167 3.31066 0.437052C3.45936 1.28072 3.88646 2.1112 4.48297 2.71644C4.94832 3.18859 5.74087 3.75141 6.87409 3.75141C7.99532 3.75141 8.77627 3.19026 9.23394 2.71955C9.82119 2.11547 10.2489 1.29809 10.4383 0.417833C10.4405 0.407286 10.4548 0.335596 10.4748 0.235928C10.499 0.114141 10.4074 0 10.285 0Z" fill="#4870FF"/>
<path d="M8.6081 11.1725H12.6732C12.7802 11.1725 12.8668 11.0844 12.8668 10.9758V10.569C12.8668 10.4604 12.7802 10.3724 12.6732 10.3724H8.60807C8.37462 10.3724 8.17374 10.1902 8.16277 9.95334C8.15103 9.70048 8.34944 9.49174 8.59584 9.49174H12.6732C12.7802 9.49174 12.8668 9.4037 12.8668 9.2951V8.92514C12.8668 8.81653 12.7802 8.72849 12.6732 8.72849H8.60807C8.37462 8.72849 8.17374 8.5463 8.16277 8.30946C8.15103 8.0566 8.34944 7.84786 8.59584 7.84786H12.6732C12.7802 7.84786 12.8668 7.75982 12.8668 7.65122V6.32538L12.8205 6.2319C12.4021 5.38894 12.1759 4.44446 12.1663 3.50057C12.1568 2.55668 12.3639 1.60764 12.765 0.7563C12.8447 0.587521 12.8312 0.391524 12.7286 0.235049C12.63 0.084756 12.4591 0 12.2814 0H11.5647C11.4726 0 11.3932 0.066006 11.3749 0.157735C11.2971 0.548058 11.2872 0.597071 11.2853 0.605919C11.0613 1.64684 10.5519 2.61724 9.85077 3.33833C9.02784 4.18474 7.99847 4.63211 6.87392 4.63211C5.74217 4.63211 4.70339 4.18513 3.86997 3.33947C3.14956 2.60854 2.63419 1.60506 2.45595 0.586378C2.45342 0.571905 2.44987 0.547384 2.39817 0.169776C2.38491 0.0725685 2.30307 0 2.2064 0H1.38841C1.24187 0 1.09854 0.0567775 0.998354 0.165381C0.855104 0.320655 0.818238 0.541437 0.896815 0.73213L1.02662 1.04704C1.67289 2.6146 1.6551 4.40491 0.977816 5.95891L0.813017 6.33701V7.66964C0.813017 7.77825 0.8997 7.86629 1.00663 7.86629H5.06354C5.29699 7.86629 5.49787 8.04848 5.50884 8.28532C5.52058 8.53818 5.32217 8.74692 5.07577 8.74692H1.0066C0.899671 8.74692 0.812988 8.83496 0.812988 8.94356V9.31352C0.812988 9.42213 0.899671 9.51017 1.0066 9.51017H5.06351C5.29696 9.51017 5.49784 9.69236 5.50881 9.9292C5.52055 10.1821 5.32214 10.3908 5.07574 10.3908H1.0066C0.899671 10.3908 0.812988 10.4788 0.812988 10.5874V10.9943C0.812988 11.1029 0.899671 11.1909 1.0066 11.1909H5.06351C5.29696 11.1909 5.49784 11.3731 5.50881 11.6099C5.52055 11.8628 5.32214 12.0715 5.07574 12.0715H1.0066C0.899671 12.0715 0.812988 12.1596 0.812988 12.2682V13.0916C0.812988 13.6036 1.14466 14.0546 1.62807 14.1998L1.83466 14.2619C3.47206 14.754 5.15564 15 6.83989 15C8.52367 15 10.2081 14.7539 11.8451 14.2619L12.0517 14.1998C12.5351 14.0545 12.8668 13.6035 12.8668 13.0916V12.2497C12.8668 12.1411 12.7801 12.0531 12.6732 12.0531H8.59584V12.0531C8.34944 12.0531 8.15106 11.8443 8.16277 11.5914C8.17376 11.3547 8.37465 11.1725 8.6081 11.1725Z" fill="#4870FF"/>
</svg>
