<svg width="15" height="14" viewBox="0 0 15 14" fill="none" xmlns="http://www.w3.org/2000/svg">
<path d="M14.4402 11.9034L8.62343 6.41374L1.82756 0H1.29646L1.18802 0.260066C0.901793 0.946503 0.779499 1.64858 0.834403 2.29031C0.896984 3.02181 1.19143 3.65512 1.68597 4.12185L6.99118 9.12875L7.69094 8.46835L12.5956 13.6443C13.0835 14.1048 13.9233 14.1321 14.4402 13.6443C14.9487 13.1643 14.9487 12.3834 14.4402 11.9034Z" fill="#FFA048"/>
<path d="M4.51659 7.96924L0.379731 11.8906C-0.126577 12.3706 -0.126577 13.1515 0.379731 13.6315C0.860711 14.0874 1.69278 14.1277 2.21622 13.6315L6.35311 9.71005L4.51659 7.96924Z" fill="#FFA048"/>
<path d="M14.1383 2.3308L11.7917 4.55521L11.1795 3.97492L13.5261 1.75048L12.9139 1.17019L10.5673 3.39461L9.95513 2.81432L12.3018 0.589905L11.6897 0.00964355L8.62879 2.91109C8.25434 3.26604 8.03075 3.73733 7.99913 4.23822C7.99114 4.36512 7.9608 4.48994 7.91046 4.60867L9.8988 6.49345C10.024 6.44568 10.1558 6.41694 10.2896 6.40937C10.818 6.37948 11.3152 6.16748 11.6897 5.81253L14.7505 2.91112L14.1383 2.3308Z" fill="#FFA048"/>
</svg>
