<svg width="16" height="25" viewBox="0 0 16 25" fill="none" xmlns="http://www.w3.org/2000/svg">
<path d="M16 12.9116C16 12.4116 15.6176 12.0293 15.1176 12.0293C14.6176 12.0293 14.2353 12.4116 14.2353 12.9116C14.2353 16.3528 11.4412 19.1469 8 19.1469C4.55882 19.1469 1.76471 16.3528 1.76471 12.9116C1.76471 12.4116 1.38235 12.0293 0.882353 12.0293C0.382353 12.0293 0 12.4116 0 12.9116C0 16.9999 3.05882 20.4411 7.11765 20.8822V23.2352H3.91176C3.41176 23.2352 3.02941 23.6175 3.02941 24.1175C3.02941 24.6175 3.41176 24.9999 3.91176 24.9999H12.0882C12.5882 24.9999 12.9706 24.6175 12.9706 24.1175C12.9706 23.6175 12.5882 23.2352 12.0882 23.2352H8.88235V20.8822C12.9412 20.4411 16 16.9999 16 12.9116Z" fill="white"/>
<path d="M7.99966 0C5.29377 0 3.08789 2.20588 3.08789 4.91176V12.8824C3.08789 15.6176 5.29377 17.7941 7.99966 17.8235C10.7055 17.8235 12.9114 15.6176 12.9114 12.9118V4.91176C12.9114 2.20588 10.7055 0 7.99966 0Z" fill="white"/>
</svg>
