<svg width="24" height="27" viewBox="0 0 24 27" fill="none" xmlns="http://www.w3.org/2000/svg">
<path d="M20 13.8844C20 13.3832 19.6176 13 19.1176 13C18.6176 13 18.2353 13.3832 18.2353 13.8844C18.2353 17.3333 15.4412 20.1338 12 20.1338C8.55882 20.1338 5.76471 17.3333 5.76471 13.8844C5.76471 13.3832 5.38235 13 4.88235 13C4.38235 13 4 13.3832 4 13.8844C4 17.9819 7.05882 21.4308 11.1176 21.873V24.2313H7.91176C7.41176 24.2313 7.02941 24.6145 7.02941 25.1156C7.02941 25.6168 7.41176 26 7.91176 26H16.0882C16.5882 26 16.9706 25.6168 16.9706 25.1156C16.9706 24.6145 16.5882 24.2313 16.0882 24.2313H12.8824V21.873C16.9412 21.4308 20 17.9819 20 13.8844Z" fill="#FF4848"/>
<path fill-rule="evenodd" clip-rule="evenodd" d="M6.85352 5.91176C6.85352 3.20588 9.16444 1 11.9992 1C14.5077 1 16.606 2.72736 17.0557 5L7.35096 16C7.03213 15.3601 6.85352 14.6428 6.85352 13.8824V5.91176ZM10.0678 18.4511L17.1448 10.1091V13.9118C17.1448 16.6176 14.8339 18.8235 11.9992 18.8235C11.3167 18.8164 10.6646 18.6849 10.0678 18.4511Z" fill="#FF4848"/>
<path d="M23 1L12 13.5L1 26" stroke="white" stroke-width="2"/>
</svg>
