<svg width="16" height="16" viewBox="0 0 16 16" fill="none" xmlns="http://www.w3.org/2000/svg">
<path d="M4.72958 4.26666C0.708779 7.25333 -0.0933507 12.7746 0.00818471 15.1619C-0.0425844 15.4413 0.48032 16 2.97809 16C5.47586 16 6.04953 14.8825 6.02415 14.3238V10.819C6.48106 10.9714 7.85179 9.75238 8.00409 9.52381C8.24777 10.1333 9.42558 10.7429 9.98403 10.9714V14.3238C10.4409 15.5429 11.8117 16 13.1062 16C14.4008 16 15.5431 15.6952 16 15.1619C15.7715 7.54286 11.964 3.9619 11.0502 4.26666C10.1363 4.57143 9.98403 8.99048 9.98403 9.52381C9.13113 9.52381 8.71484 8.30476 8.6133 7.69524L8.53715 5.33333C8.56253 5.10476 8.49146 4.64762 8.00409 4.64762C7.51672 4.64762 7.39488 5.10476 7.39488 5.33333V7.69524C7.39488 8.79238 6.48106 9.37143 6.02415 9.52381L5.7957 6.55238C5.66878 5.6127 5.27787 3.84 4.72958 4.26666Z" fill="#48BDFF"/>
<path d="M8.6133 0.609524C8.6133 0.946155 8.34055 1.21905 8.00409 1.21905C7.66763 1.21905 7.39488 0.946155 7.39488 0.609524C7.39488 0.272893 7.66763 0 8.00409 0C8.34055 0 8.6133 0.272893 8.6133 0.609524Z" fill="#48BDFF"/>
<path d="M8.6133 3.04762C8.6133 3.38425 8.34055 3.65714 8.00409 3.65714C7.66763 3.65714 7.39488 3.38425 7.39488 3.04762C7.39488 2.71099 7.66763 2.4381 8.00409 2.4381C8.34055 2.4381 8.6133 2.71099 8.6133 3.04762Z" fill="#48BDFF"/>
</svg>
