<svg width="15" height="16" viewBox="0 0 15 16" fill="none" xmlns="http://www.w3.org/2000/svg">
<path fill-rule="evenodd" clip-rule="evenodd" d="M9.94285 0.0170216C9.18142 0.153292 8.59227 0.902134 8.59412 1.73128C8.59514 2.19078 8.7559 2.59325 9.07436 2.9336C9.73282 3.63727 10.7712 3.6125 11.392 2.87832C11.9753 2.18846 11.9513 1.17034 11.3364 0.51332C11.2233 0.392463 11.0624 0.254435 10.9789 0.206563C10.6948 0.0436729 10.2493 -0.0378192 9.94285 0.0170216ZM13.8556 2.02846C13.6638 2.10188 13.4805 2.25787 13.3916 2.42333C13.353 2.49506 13.1543 3.04818 12.9499 3.65246C12.7455 4.25675 12.5684 4.76209 12.5563 4.77543C12.5442 4.78874 12.2059 4.67146 11.8044 4.51475L11.0745 4.22985L10.8387 4.30132C10.6419 4.36094 10.5346 4.37246 10.1922 4.37079C9.83439 4.36907 9.74831 4.35802 9.52323 4.28494C8.94977 4.09872 8.47357 3.73276 8.15854 3.23628C8.04022 3.04978 8.03676 3.0473 7.73718 2.93376C7.09069 2.68875 6.74433 2.67465 5.38225 2.83798C4.356 2.96104 4.24575 2.98998 3.96761 3.20909C3.68343 3.43301 3.61609 3.57154 3.19424 4.80004C2.77194 6.02989 2.74323 6.16167 2.82887 6.47688C2.89343 6.7146 3.13822 6.98928 3.35617 7.0686C3.51798 7.1275 3.74582 7.13644 3.90191 7.09005C4.05264 7.04522 4.2622 6.89391 4.35617 6.76207C4.4048 6.69382 4.56072 6.28985 4.74163 5.76332C4.90869 5.27706 5.05513 4.87014 5.06707 4.85909C5.09013 4.83771 6.80411 4.66041 6.81748 4.67799C6.82182 4.6837 6.34732 6.09393 5.76307 7.81183L4.70074 10.9353L3.45759 10.951L2.21441 10.9667L2.0499 11.0532C1.26843 11.4639 1.27401 12.6534 2.05923 13.0415L2.24374 13.1327L3.78139 13.1416C4.81656 13.1476 5.36979 13.1393 5.47432 13.116C5.81657 13.04 6.16888 12.7709 6.34169 12.4535C6.38273 12.3782 6.53193 11.9748 6.67324 11.5572L6.93014 10.7979L7.10932 10.8697C7.20787 10.9092 7.57557 11.0527 7.92642 11.1886C8.27726 11.3246 8.56435 11.4507 8.56435 11.4688C8.56435 11.487 8.32443 12.2008 8.03122 13.055L7.49806 14.6081L7.49594 14.9063C7.49401 15.174 7.50225 15.2222 7.5764 15.3772C7.8687 15.9882 8.56517 16.1866 9.08146 15.8059C9.34649 15.6106 9.36951 15.5564 10.1066 13.3937C10.4846 12.2847 10.8082 11.289 10.8258 11.181C10.9084 10.6734 10.6592 10.0798 10.244 9.79495C10.1671 9.74218 9.93259 9.6326 9.72288 9.55138C9.51317 9.47014 9.33103 9.39374 9.3181 9.38153C9.29733 9.36194 10.3924 6.07186 10.4382 6.01611C10.4482 6.00393 10.9074 6.16949 11.4587 6.38399C12.0099 6.59849 12.5448 6.78831 12.6472 6.80583C13.1758 6.8962 13.74 6.58367 13.9858 6.06439C14.0199 5.99244 14.2617 5.30733 14.5233 4.54191C14.9775 3.2128 14.999 3.13962 15 2.91477C15.0013 2.62917 14.9338 2.4491 14.753 2.25554C14.5189 2.00504 14.1564 1.91328 13.8556 2.02846ZM0.22763 6.96621C0.103799 7.03618 0 7.22139 0 7.37235C0 7.52293 0.0976687 7.69427 0.228275 7.77284C0.338174 7.83895 0.379412 7.84322 0.907058 7.84322C1.55906 7.84322 1.65327 7.81556 1.75942 7.5929C1.83421 7.43601 1.83421 7.30869 1.75942 7.15179C1.65292 6.92838 1.55959 6.90126 0.903069 6.90286C0.39789 6.90411 0.325562 6.91089 0.22763 6.96621ZM0.22763 8.84969C0.103799 8.91966 0 9.10487 0 9.25583C0 9.40642 0.0976687 9.57775 0.228275 9.65633C0.344598 9.7263 0.353015 9.72671 1.64031 9.72671C2.88035 9.72671 2.94024 9.72401 3.05108 9.66352C3.18121 9.59244 3.28495 9.4116 3.28495 9.25583C3.28495 9.10007 3.18121 8.91922 3.05108 8.84815C2.94012 8.78757 2.88173 8.78503 1.63632 8.78634C0.400941 8.78766 0.331927 8.79077 0.22763 8.84969Z" fill="#C4FF48"/>
</svg>
