<svg width="20" height="16" viewBox="0 0 20 16" fill="none" xmlns="http://www.w3.org/2000/svg">
<path fill-rule="evenodd" clip-rule="evenodd" d="M9.98319 0.016794C9.18534 0.0708891 8.30521 0.236003 7.49444 0.483655C7.28465 0.547748 7.11304 0.60378 7.11304 0.608198C7.11308 0.612615 7.24369 0.750333 7.40338 0.914207C7.74527 1.26517 7.98041 1.69626 8.0757 2.14685C8.21919 2.82536 8.01706 3.22701 7.51451 3.26184C7.32647 3.27486 7.2667 3.26242 7.15427 3.18671C6.95829 3.05476 6.88345 2.90069 6.85885 2.57856C6.82521 2.13751 6.6446 1.84619 6.22939 1.56323C5.74515 1.2332 5.31176 1.19507 4.63528 1.42296C3.79095 1.70734 3.05991 2.15405 2.49339 2.73174C1.95994 3.27568 1.59226 3.88711 1.51579 4.35746C1.36424 5.28956 2.09517 6.40118 3.14385 6.83367C3.34453 6.9164 3.57709 6.97406 3.85729 7.01049C4.29206 7.06702 4.39549 7.11267 4.54836 7.31553C4.66145 7.46557 4.66145 7.83315 4.54836 7.98319C4.37272 8.21623 4.28431 8.25045 3.87271 8.24464C2.60109 8.2267 1.2222 7.31777 0.603233 6.08947L0.428334 5.74239L0.363476 5.89181C-0.26234 7.33358 -0.0805959 8.6905 0.913089 9.9956C1.0484 10.1733 1.24243 10.4417 1.34425 10.5921C1.71529 11.1399 2.28168 11.5673 2.8687 11.7425C3.21505 11.8458 3.93248 11.8377 4.38938 11.7252C5.45943 11.4619 6.05661 10.7432 6.27645 9.4541C6.33697 9.09943 6.33705 9.05106 6.27755 8.77679C6.18597 8.35465 6.2745 8.10638 6.5698 7.95711C6.88592 7.79738 7.25054 7.91549 7.41409 8.23061C7.54815 8.48888 7.60382 8.99383 7.5498 9.46216C7.43076 10.495 7.0287 11.3911 6.38066 12.0681L6.05907 12.4041L6.22419 12.5211C6.47173 12.6964 6.83761 12.8687 7.15885 12.9612C7.57503 13.081 8.41416 13.1063 9.01051 13.017L9.45897 12.9499L9.66493 13.1345C10.0324 13.464 10.5981 13.6644 11.3151 13.719L11.6537 13.7448L12.6295 14.819C13.2671 15.5208 13.6496 15.9117 13.7331 15.9466C13.8277 15.9861 14.0693 16 14.6629 16C15.3945 16 15.4765 15.9932 15.5976 15.9225C15.9218 15.7334 15.9834 15.5022 15.8527 14.9672C15.8007 14.7546 15.7582 14.5663 15.7582 14.5487C15.7582 14.5311 15.8218 14.5049 15.8996 14.4905C16.1624 14.4416 16.7523 14.2342 17.1228 14.0604C17.8362 13.7256 18.5513 13.1669 18.9929 12.5994C19.2418 12.2796 19.4956 11.7859 19.5935 11.4312C19.6636 11.1772 19.6752 11.0514 19.6612 10.695C19.6423 10.215 19.5656 9.96126 19.3378 9.62608L19.2073 9.43388L19.4238 9.11341C19.8544 8.47617 20 8.01311 20 7.28123C20 6.87331 19.9831 6.71866 19.9109 6.46818C19.7357 5.86015 19.4076 5.29773 18.903 4.74031C18.7763 4.60027 18.5172 4.29907 18.3273 4.07102C18.1375 3.84298 17.7941 3.46288 17.5643 3.22642L17.1465 2.79649L17.0204 3.10138C16.6961 3.88533 16.1524 4.513 15.5441 4.80564C14.9154 5.10813 14.3595 4.8578 14.4002 4.29058C14.4212 3.99767 14.5512 3.84736 14.8964 3.71665C15.1219 3.63132 15.2087 3.57138 15.3831 3.38046C15.7811 2.94483 15.9913 2.42841 15.9128 2.07903C15.8513 1.80523 15.7336 1.66077 15.3866 1.43295C14.8702 1.09393 14.7017 1.02309 14.4115 1.02309C14.1879 1.02309 14.1173 1.04359 13.8209 1.19468C13.1596 1.53177 12.7624 1.91563 12.4871 2.48386C12.2125 3.05069 12.1166 3.47481 12.0859 4.25873C12.0645 4.80499 12.0478 4.93557 11.9883 5.02334C11.7428 5.3855 11.2091 5.3745 10.9307 5.00164C10.8544 4.8995 10.8489 4.84257 10.8497 4.16852C10.8505 3.50101 10.8592 3.41196 10.9617 3.01872C11.2367 1.96379 11.6501 1.24308 12.3595 0.581499L12.7097 0.254913L12.4269 0.191208C11.7366 0.0356654 10.7467 -0.0349761 9.98319 0.016794ZM9.09239 3.62171C9.47861 3.85817 9.52809 4.6627 9.19292 5.25553L9.08946 5.43859L9.28438 5.63463C9.51585 5.8674 9.71218 5.943 9.9055 5.87375C10.2188 5.76149 10.5127 5.85802 10.7012 6.13508C10.8527 6.35766 10.8009 6.70858 10.588 6.9028C10.4423 7.03567 10.0724 7.14561 9.77109 7.14561C9.24409 7.14561 8.72464 6.89602 8.31229 6.44462L8.10152 6.2139L7.91833 6.29167C7.24526 6.57749 6.42358 6.59338 5.87721 6.33116C5.57103 6.18422 5.24964 5.86957 5.19307 5.6614C5.10904 5.35241 5.24733 5.05616 5.53418 4.93046C5.79843 4.81467 6.00607 4.85575 6.25243 5.07248C6.3967 5.19942 6.48945 5.24825 6.62425 5.26828C6.98281 5.32156 7.54948 5.14572 7.87765 4.87935C8.10856 4.69191 8.16736 4.54873 8.14158 4.23687C8.12581 4.0461 8.13641 3.95217 8.18398 3.86107C8.25197 3.7308 8.45233 3.56281 8.57998 3.52902C8.721 3.49171 8.94675 3.53255 9.09239 3.62171ZM13.2176 5.54476C13.7195 5.79017 14.1515 6.38211 14.295 7.02114C14.402 7.49734 14.3257 8.38197 14.1371 8.85208C14.1204 8.89393 14.1864 8.96504 14.3587 9.09051C14.8961 9.48189 15.3602 10.0591 15.5308 10.5483C15.6549 10.904 15.6615 11.5536 15.543 11.7528C15.286 12.1851 14.7045 12.1864 14.4497 11.7553C14.3921 11.6579 14.3726 11.5494 14.3702 11.3137C14.3677 11.0727 14.3467 10.9599 14.2784 10.8206C14.0889 10.4341 13.6663 10.0738 13.0638 9.78519C12.6306 9.57764 12.2471 9.49545 11.8139 9.51719C11.419 9.53703 11.2158 9.62174 11.0404 9.83963C10.7952 10.1441 10.684 10.2396 10.5252 10.282C10.2348 10.3595 9.94603 10.2288 9.81498 9.96068C9.70737 9.74047 9.71281 9.60535 9.83947 9.35362C10.0687 8.89796 10.6401 8.47919 11.24 8.32737C11.5545 8.24778 12.2371 8.24836 12.6341 8.32857C12.8069 8.36348 12.956 8.38441 12.9654 8.37507C13.0036 8.33713 13.0968 7.81071 13.0975 7.62874C13.0983 7.37404 13.0157 7.06524 12.9031 6.90241C12.8535 6.83084 12.721 6.70858 12.6085 6.6307C12.3772 6.47058 12.2767 6.29845 12.2767 6.0625C12.2767 5.80009 12.4385 5.57352 12.6874 5.48734C12.8768 5.42177 12.9914 5.43421 13.2176 5.54476ZM17.2073 6.60295C17.5035 6.68444 17.7159 7.05377 17.6345 7.34579C17.5866 7.51749 17.4676 7.67214 17.3283 7.74352C17.1989 7.80974 16.2198 7.99811 16.0047 7.99811C15.8296 7.99811 15.638 7.88876 15.5075 7.71434C15.3885 7.55527 15.3933 7.21001 15.5168 7.03846C15.6477 6.85661 15.7777 6.80379 16.3983 6.68018C17.0423 6.55192 17.0272 6.55339 17.2073 6.60295Z" fill="#FF48F8"/>
</svg>
