<svg width="17" height="14" viewBox="0 0 17 14" fill="none" xmlns="http://www.w3.org/2000/svg">
<path opacity="0.4" d="M16.0232 4.5582V10.6303C16.0232 12.4942 14.533 14 12.6984 14H3.32481C1.49016 14 0 12.4942 0 10.6303V4.5582H16.0232Z" fill="white"/>
<path d="M16.0232 3.36975V4.55811H0V3.36975C0 1.50581 1.49016 0 3.32481 0H12.6984C14.533 0 16.0232 1.50581 16.0232 3.36975Z" fill="white"/>
<path d="M4.80695 11.2733H3.20463C2.87615 11.2733 2.60376 10.9965 2.60376 10.6628C2.60376 10.3291 2.87615 10.0523 3.20463 10.0523H4.80695C5.13542 10.0523 5.40781 10.3291 5.40781 10.6628C5.40781 10.9965 5.13542 11.2733 4.80695 11.2733Z" fill="white"/>
<path d="M10.0145 11.2733H6.80985C6.48138 11.2733 6.20898 10.9965 6.20898 10.6628C6.20898 10.3291 6.48138 10.0523 6.80985 10.0523H10.0145C10.343 10.0523 10.6154 10.3291 10.6154 10.6628C10.6154 10.9965 10.343 11.2733 10.0145 11.2733Z" fill="white"/>
</svg>
