<svg width="14" height="12" viewBox="0 0 14 12" fill="none" xmlns="http://www.w3.org/2000/svg">
<path d="M1 1H13V9.5H1V1Z" fill="#5B3030"/>
<path d="M6.80345 2.55136C5.86795 2.55136 5.10254 3.48686 5.10254 4.67749C5.10254 5.57047 5.57029 6.33588 6.20813 6.67606C6.59083 5.57047 7.39876 4.67749 8.46183 4.20974C8.29174 3.27425 7.61138 2.55136 6.80345 2.55136Z" fill="#FF9090"/>
<path d="M13.182 0H0.425226C0.170091 0 0 0.170091 0 0.425227V8.92976C0 9.18489 0.170091 9.35498 0.425226 9.35498H6.16578C6.03822 8.97228 5.95317 8.50453 5.95317 8.0793H2.97659C2.72145 8.0793 2.55136 7.90921 2.55136 7.65408C2.55136 7.18633 2.16866 6.80362 1.70091 6.80362C1.44577 6.80362 1.27568 6.63353 1.27568 6.3784V2.97659C1.27568 2.72145 1.44577 2.55136 1.70091 2.55136C2.16866 2.55136 2.55136 2.16866 2.55136 1.70091C2.55136 1.44577 2.72145 1.27568 2.97659 1.27568H10.6307C10.8858 1.27568 11.0559 1.44577 11.0559 1.70091C11.0559 2.16866 11.4386 2.55136 11.9063 2.55136C12.1615 2.55136 12.3316 2.72145 12.3316 2.97659V4.42236C12.8418 4.72001 13.2671 5.10272 13.6072 5.57047V0.425227C13.6072 0.170091 13.4372 0 13.182 0Z" fill="#FF9090"/>
<path d="M7.78162 5.65551C6.46342 6.97371 6.46342 9.14236 7.78162 10.4606C9.09982 11.7788 11.2685 11.7788 12.5867 10.4606C13.9049 9.14236 13.9049 6.97371 12.5867 5.65551C11.2685 4.3373 9.14235 4.3373 7.78162 5.65551ZM11.396 7.48398L10.8007 8.0793L11.396 8.67461C11.5661 8.84471 11.5661 9.09984 11.396 9.26993C11.226 9.44002 10.9708 9.44002 10.8007 9.26993L10.2054 8.67461L9.61009 9.26993C9.44 9.44002 9.18487 9.44002 9.01478 9.26993C8.84469 9.09984 8.84469 8.84471 9.01478 8.67461L9.61009 8.0793L9.01478 7.48398C8.84469 7.31389 8.84469 7.05875 9.01478 6.88866C9.18487 6.71857 9.44 6.71857 9.61009 6.88866L10.2054 7.48398L10.8007 6.88866C10.9708 6.71857 11.226 6.71857 11.396 6.88866C11.5661 7.05875 11.5661 7.31389 11.396 7.48398Z" fill="#FF9090"/>
</svg>
