<svg width="17" height="14" viewBox="0 0 17 14" fill="none" xmlns="http://www.w3.org/2000/svg">
<path opacity="0.4" d="M16.8671 5.95351V8.55582C16.8671 9.35465 16.2284 9.99999 15.4422 9.99999H11.4249C10.6386 9.99999 10 9.35465 10 8.55582V5.95351H16.8671Z" fill="#FF90F4"/>
<path d="M16.8671 5.44418V5.95348H10V5.44418C10 4.64535 10.6386 4 11.4249 4H15.4422C16.2284 4 16.8671 4.64535 16.8671 5.44418Z" fill="#FF90F4"/>
<path d="M12.0599 8.8314H11.3732C11.2325 8.8314 11.1157 8.7128 11.1157 8.56978C11.1157 8.42676 11.2325 8.30815 11.3732 8.30815H12.0599C12.2007 8.30815 12.3175 8.42676 12.3175 8.56978C12.3175 8.7128 12.2007 8.8314 12.0599 8.8314Z" fill="#FF90F4"/>
<path d="M14.2921 8.8314H12.9186C12.7779 8.8314 12.6611 8.7128 12.6611 8.56978C12.6611 8.42676 12.7779 8.30815 12.9186 8.30815H14.2921C14.4328 8.30815 14.5496 8.42676 14.5496 8.56978C14.5496 8.7128 14.4328 8.8314 14.2921 8.8314Z" fill="#FF90F4"/>
<path d="M5.38663 0.27207C5.00179 0.0935335 4.58276 0.000710917 4.15852 2.00072e-05C3.46813 -0.00255401 2.79984 0.243319 2.27573 0.692728C1.75163 1.14214 1.40668 1.76509 1.3039 2.4478C1.20111 3.13051 1.34735 3.82741 1.71591 4.41121C2.08446 4.99501 2.65073 5.42675 3.31128 5.62756C3.17682 5.18935 3.1087 4.73347 3.10919 4.27509C3.10911 3.46765 3.31902 2.67407 3.7183 1.97226C4.11758 1.27046 4.6925 0.684551 5.38663 0.27207ZM4.46166 7.54746C4.25699 7.34751 4.07456 7.12599 3.91757 6.88677C3.53839 6.86114 3.16952 6.75234 2.83714 6.56808C2.54152 6.402 2.19206 6.36006 1.86553 6.45149C1.32768 6.59599 0.852868 6.91466 0.515345 7.35766C0.177821 7.80066 -0.00338868 8.34301 4.79958e-05 8.89993V9.45181C-0.00120105 9.77977 0.0789197 10.1029 0.233234 10.3923C0.316226 10.5419 0.437995 10.6663 0.585724 10.7524C0.733453 10.8386 0.90168 10.8834 1.0727 10.882H1.6168C1.73979 10.1188 2.0702 9.40414 2.57193 8.81605C3.07365 8.22797 3.72738 7.78911 4.46166 7.54746ZM10.5556 8.60457C10.4208 8.5707 10.2826 8.55245 10.1436 8.55016C9.87408 8.55079 9.60918 8.62036 9.37411 8.75225C8.8837 9.02252 8.33285 9.16425 7.7729 9.16425C7.21295 9.16425 6.6621 9.02252 6.17169 8.75225C5.93662 8.62036 5.67172 8.55079 5.40218 8.55016C5.26323 8.55245 5.125 8.5707 4.99022 8.60457C4.33694 8.7817 3.76037 9.16948 3.34999 9.70776C2.93961 10.246 2.71835 10.9047 2.72055 11.5816V12.2578C2.72079 12.6541 2.81962 13.0441 3.00814 13.3926C3.10623 13.5765 3.25324 13.7298 3.43293 13.8354C3.61261 13.941 3.81799 13.9949 4.02638 13.9912H11.5194C11.7278 13.9949 11.9332 13.941 12.1129 13.8354C12.2926 13.7298 12.4396 13.5765 12.5377 13.3926C12.7262 13.0441 12.825 12.6541 12.8253 12.2578V11.5816C12.8274 10.9047 12.6062 10.246 12.1958 9.70776C11.7854 9.16948 11.2089 8.7817 10.5556 8.60457ZM11.2707 4.27509C11.2707 3.58329 11.0655 2.90703 10.6812 2.33182C10.2969 1.75662 9.75058 1.3083 9.11144 1.04356C8.47231 0.778819 7.76902 0.709551 7.09052 0.844514C6.41201 0.979477 5.78877 1.31261 5.29959 1.80178C4.81042 2.29096 4.47729 2.9142 4.34233 3.5927C4.20736 4.27121 4.27663 4.97449 4.54137 5.61363C4.80611 6.25277 5.25443 6.79905 5.82964 7.18339C6.40484 7.56773 7.0811 7.77287 7.7729 7.77287C8.70057 7.77287 9.59024 7.40436 10.2462 6.74839C10.9022 6.09243 11.2707 5.20276 11.2707 4.27509Z" fill="#FF90F4"/>
</svg>
