<svg width="14" height="14" viewBox="0 0 14 14" fill="none" xmlns="http://www.w3.org/2000/svg">
<path opacity="0.4" d="M14 7V10.5C14 12.6 12.6 14 10.5 14H3.5C1.4 14 0 12.6 0 10.5V7C0 5.096 1.148 3.766 2.933 3.542C3.115 3.514 3.304 3.5 3.5 3.5H10.5C10.682 3.5 10.857 3.50699 11.025 3.53499C12.831 3.74499 14 5.082 14 7Z" fill="#B4FF90"/>
<path d="M11.0002 3.49308C10.8342 3.46541 10.6611 3.4585 10.4812 3.4585H3.5608C3.36702 3.4585 3.18017 3.47233 3.00024 3.5C3.09713 3.30632 3.23554 3.12648 3.40163 2.96048L5.65079 0.705532C6.59888 -0.235177 8.1352 -0.235177 9.0833 0.705532L10.2944 1.92985C10.7373 2.36562 10.9726 2.91897 11.0002 3.49308Z" fill="#B4FF90"/>
<path d="M14 7.50002H11.9C11.13 7.50002 10.5 8.06252 10.5 8.75002C10.5 9.43752 11.13 10 11.9 10H14" fill="#B4FF90"/>
</svg>
