<svg version="1.0" xmlns="http://www.w3.org/2000/svg" width="180" height="100" viewBox="0 0 180 100"
    preserveAspectRatio="xMidYMid meet">
    <g transform="translate(0.0, 100.0) scale(0.05, -0.05)" fill="#000000" stroke="none">
        <path d="M1501 1831 c-227 -227 -229 -231 -224 -316 4 -70 -4 -94 -46 -134 l-52 -49 -105 104 c-131 129 -118 131 -280 -32 -161 -162 -159 -147 -30 -278 l104 -105 -49 -52 c-40 -42 -64 -50 -134 -46 -85 5 -89 3 -316 -224 -268 -267 -260 -240 -113 -385 146 -144 116 -153 383 115 227 227 229 231 224 316 -4 70 4 94 46 134 l52 49 105 -104 c131 -129 118 -131 280 32 161 162 159 147 30 278 l-104 105 49 52 c40 42 64 50 134 46 85 -5 89 -3 316 224 268 267 259 237 115 383 -145 147 -118 155 -385 -113z"/>
        <path d="M2780 940 l0 -520 90 0 90 0 0 520 0 520 -90 0 -90 0 0 -520z"/>
        <path d="M2380 810 l0 -390 90 0 90 0 0 390 0 390 -90 0 -90 0 0 -390z"/>
        <path d="M1980 650 l0 -230 90 0 90 0 0 230 0 230 -90 0 -90 0 0 -230z"/>
        <path d="M1580 470 c0 -46 7 -50 90 -50 83 0 90 4 90 50 0 46 -7 50 -90 50 -83 0 -90 -4 -90 -50z"/>
        <path d="M3180 440 c0 -11 41 -20 90 -20 50 0 90 9 90 20 0 11 -40 20 -90 20 -49 0 -90 -9 -90 -20z"/>
    </g>
</svg>
