<svg width="25" height="22" viewBox="0 0 25 22" fill="none" xmlns="http://www.w3.org/2000/svg">
<path fill-rule="evenodd" clip-rule="evenodd" d="M11.6442 0.00015645H25C24.9898 5.9571 24.9634 18.2452 24.939 19.742C24.9146 21.2387 23.8514 21.871 23.3229 22H4.90538C3.05143 22 2.2017 20.5591 2.00858 19.8387C1.69349 18.6667 0.898657 15.7613 0.240017 13.5162C-0.418623 11.271 0.433136 9.80654 0.941346 9.35493C1.98826 8.09687 4.57606 5.01948 6.55198 2.77433C8.5279 0.529185 10.7701 -0.0105962 11.6442 0.00015645ZM3.25878 9.96783L8.83892 3.45175C9.29631 2.90336 10.7173 2.25175 11.6442 2.22595C12.5712 2.20014 19.5317 2.2152 22.896 2.22595V9.96783H3.25878ZM18.7185 14.3226V12.1291H22.896V14.3226H18.7185Z" fill="white" fill-opacity="0.5"/>
</svg>
