<svg width="22" height="22" viewBox="0 0 22 22" fill="none" xmlns="http://www.w3.org/2000/svg">
<path fill-rule="evenodd" clip-rule="evenodd" d="M11 0C11.6075 0 12.1 0.492492 12.1 1.1V2.2C12.1 2.80751 11.6075 3.3 11 3.3C10.3925 3.3 9.9 2.80751 9.9 2.2V1.1C9.9 0.492492 10.3925 0 11 0Z" fill="white" fill-opacity="0.5"/>
<path fill-rule="evenodd" clip-rule="evenodd" d="M19.4778 2.52218C19.9074 2.95176 19.9074 3.64824 19.4778 4.07782L18.3778 5.17782C17.9483 5.60739 17.2517 5.60739 16.8222 5.17782C16.3926 4.74824 16.3926 4.05176 16.8222 3.62218L17.9222 2.52218C18.3517 2.09261 19.0483 2.09261 19.4778 2.52218Z" fill="white" fill-opacity="0.5"/>
<path fill-rule="evenodd" clip-rule="evenodd" d="M18.7 11C18.7 10.3925 19.1925 9.9 19.8 9.9H20.9C21.5075 9.9 22 10.3925 22 11C22 11.6075 21.5075 12.1 20.9 12.1H19.8C19.1925 12.1 18.7 11.6075 18.7 11Z" fill="white" fill-opacity="0.5"/>
<path fill-rule="evenodd" clip-rule="evenodd" d="M0 11C0 10.3925 0.492492 9.9 1.1 9.9H2.2C2.80751 9.9 3.3 10.3925 3.3 11C3.3 11.6075 2.80751 12.1 2.2 12.1H1.1C0.492492 12.1 0 11.6075 0 11Z" fill="white" fill-opacity="0.5"/>
<path fill-rule="evenodd" clip-rule="evenodd" d="M2.52218 2.52218C2.95176 2.09261 3.64824 2.09261 4.07782 2.52218L5.17782 3.62218C5.60739 4.05176 5.60739 4.74824 5.17782 5.17782C4.74824 5.60739 4.05176 5.60739 3.62218 5.17782L2.52218 4.07782C2.09261 3.64824 2.09261 2.95176 2.52218 2.52218Z" fill="white" fill-opacity="0.5"/>
<path fill-rule="evenodd" clip-rule="evenodd" d="M11 4.4C7.35492 4.4 4.4 7.35492 4.4 11C4.4 12.7965 5.11926 14.4273 6.28305 15.6163C6.57768 15.9173 6.73651 16.1939 6.78554 16.4388L7.36754 19.3475C7.67616 20.8899 9.03045 22 10.6035 22H11.3966C12.9696 22 14.3239 20.8899 14.6324 19.3475L15.2144 16.4388C15.2635 16.1939 15.4223 15.9173 15.7169 15.6163C16.8807 14.4273 17.6 12.7965 17.6 11C17.6 7.35492 14.6451 4.4 11 4.4ZM9.9 15.4C9.29247 15.4 8.8 15.8925 8.8 16.5C8.8 17.1075 9.29247 17.6 9.9 17.6H12.1C12.7075 17.6 13.2 17.1075 13.2 16.5C13.2 15.8925 12.7075 15.4 12.1 15.4H9.9Z" fill="white" fill-opacity="0.5"/>
</svg>
