<svg width="15" height="18" viewBox="0 0 15 18" fill="none" xmlns="http://www.w3.org/2000/svg">
<path d="M14.1155 0.456228C13.841 0.162066 13.4626 0 13.0497 0H11.9151C11.0789 0 10.2809 0.669994 10.1364 1.49359L10.0648 1.90089C9.99288 2.31074 10.0897 2.69893 10.3375 2.99399C10.5852 3.28905 10.9508 3.4515 11.367 3.4515H12.8326C13.0359 3.4515 13.2326 3.41089 13.4154 3.33881L13.2596 4.66958C13.1097 4.60656 12.9451 4.573 12.7721 4.573H11.0998C10.3835 4.573 9.67983 5.14311 9.53118 5.84383L8.05272 12.814L1.07713 12.3128C0.700174 12.2858 0.385482 12.4135 0.190373 12.6644C0.00762653 12.8994 -0.0457961 13.2146 0.0398451 13.5521L0.850851 16.7453C1.02655 17.4371 1.75027 18 2.46402 18H8.31197H8.40121H11.378C12.1012 18 12.7518 17.4147 12.8281 16.6955L13.9724 5.90744C13.9789 5.84578 13.9796 5.78501 13.9775 5.72484L14.3692 2.37952C14.4245 2.23544 14.4596 2.08229 14.4706 1.92344L14.4966 1.55106C14.5253 1.13926 14.3899 0.750465 14.1155 0.456228Z" fill="white" fill-opacity="0.5" style="fill:white;fill:white;fill-opacity:0.5;"/>
</svg>
