<svg width="13" height="18" viewBox="0 0 13 18" fill="none" xmlns="http://www.w3.org/2000/svg">
<path opacity="0.4" d="M6.3354 0C3.97739 0 2.06038 1.91701 2.06038 4.27502C2.06038 6.58803 3.86939 8.46004 6.2274 8.54104C6.2994 8.53204 6.3714 8.53204 6.4254 8.54104C6.4434 8.54104 6.4524 8.54104 6.4704 8.54104C6.4794 8.54104 6.4794 8.54104 6.4884 8.54104C8.79241 8.46004 10.6014 6.58803 10.6104 4.27502C10.6104 1.91701 8.69341 0 6.3354 0Z" fill="#AEAEAE"/>
<path d="M10.908 10.9352C8.39701 9.26119 4.30202 9.26119 1.77301 10.9352C0.630003 11.7002 0 12.7352 0 13.8422C0 14.9492 0.630003 15.9752 1.76401 16.7312C3.02401 17.5772 4.67999 18.0002 6.336 18.0002C7.992 18.0002 9.64801 17.5772 10.908 16.7312C12.042 15.9662 12.672 14.9402 12.672 13.8242C12.663 12.7172 12.042 11.6912 10.908 10.9352Z" fill="#AEAEAE"/>
</svg>
