<svg width="18" height="18" viewBox="0 0 18 18" fill="none" xmlns="http://www.w3.org/2000/svg">
<path d="M13.8795 3.46966H3.46986C3.1142 3.46966 2.81926 3.17472 2.81926 2.81906C2.81926 2.4634 3.1142 2.16846 3.46986 2.16846H13.8795C14.2352 2.16846 14.5301 2.4634 14.5301 2.81906C14.5301 3.17472 14.2352 3.46966 13.8795 3.46966Z" fill="#42FF00"/>
<path d="M11.2771 1.3012H6.07232C5.71666 1.3012 5.42172 1.00627 5.42172 0.650602C5.42172 0.29494 5.71666 0 6.07232 0H11.2771C11.6328 0 11.9277 0.29494 11.9277 0.650602C11.9277 1.00627 11.6328 1.3012 11.2771 1.3012Z" fill="#42FF00"/>
<path opacity="0.4" d="M13.8795 4.98779H3.46988C1.56145 4.98779 0 6.54924 0 8.45767V14.53C0 16.4384 1.56145 17.9998 3.46988 17.9998H13.8795C15.788 17.9998 17.3494 16.4384 17.3494 14.53V8.45767C17.3494 6.54924 15.788 4.98779 13.8795 4.98779Z" fill="#42FF00"/>
<path d="M11.5978 7.4952C11.3376 7.28701 10.8605 7.0875 10.0971 7.28702L7.72892 7.93762C6.99157 8.12846 6.51448 8.75304 6.51448 9.52509V10.913V12.5612C6.34098 12.5092 6.1675 12.4745 5.97666 12.4745C4.96172 12.4745 4.13762 13.2986 4.13762 14.3135C4.13762 15.3285 4.96172 16.1526 5.97666 16.1526C6.99157 16.1526 7.81567 15.3285 7.81567 14.3135V14.3048V11.4161L10.8692 10.5834V11.7718C10.6957 11.7198 10.5222 11.685 10.3313 11.685C9.31639 11.685 8.49229 12.5092 8.49229 13.5241C8.49229 14.5391 9.31639 15.3632 10.3313 15.3632C11.3289 15.3632 12.1443 14.5651 12.1617 13.5675C12.1617 13.5502 12.1704 13.5415 12.1704 13.5241V9.7332V8.88316C12.1704 8.10244 11.8581 7.69473 11.5978 7.4952ZM5.97666 14.8427C5.68172 14.8427 5.43882 14.5998 5.43882 14.3048C5.43882 14.0099 5.68172 13.767 5.97666 13.767C6.2716 13.767 6.5058 14.0012 6.51448 14.2962C6.51448 14.5998 6.2716 14.8427 5.97666 14.8427ZM10.3313 14.0533C10.0364 14.0533 9.7935 13.8104 9.7935 13.5155C9.7935 13.2205 10.0364 12.9776 10.3313 12.9776C10.6263 12.9776 10.8692 13.2205 10.8692 13.5155C10.8692 13.8104 10.6263 14.0533 10.3313 14.0533Z" fill="#42FF00"/>
</svg>
