<svg width="18" height="18" viewBox="0 0 18 18" fill="none" xmlns="http://www.w3.org/2000/svg">
<path opacity="0.4" d="M15.7143 4.19432L10.6996 0.685806C9.33279 -0.271853 7.23465 -0.219617 5.92007 0.798984L1.55837 4.20302C0.687773 4.88209 0 6.27505 0 7.37197V13.3791C0 15.5991 1.80214 17.41 4.02217 17.41H13.4072C15.6272 17.41 17.4294 15.6078 17.4294 13.3878V7.48515C17.4294 6.30987 16.6719 4.86468 15.7143 4.19432Z" fill="white"/>
<path d="M8.7144 14.5808C8.35745 14.5808 8.06145 14.2848 8.06145 13.9278V11.316C8.06145 10.9591 8.35745 10.6631 8.7144 10.6631C9.07135 10.6631 9.36735 10.9591 9.36735 11.316V13.9278C9.36735 14.2848 9.07135 14.5808 8.7144 14.5808Z" fill="#AEAEAE"/>
</svg>
