<svg width="17" height="17" viewBox="0 0 17 17" fill="none" xmlns="http://www.w3.org/2000/svg">
<path  d="M6.84198 13.6789C8.36146 13.6789 9.83748 13.1718 11.0362 12.238L15.5588 16.7612C15.8966 17.0876 16.435 17.0782 16.7613 16.7403C17.0796 16.4107 17.0796 15.8882 16.7613 15.5586L12.2387 11.0353C14.5556 8.05242 14.0161 3.75579 11.0336 1.43855C8.05116 -0.878699 3.75522 -0.339092 1.43833 2.64383C-0.878566 5.62675 -0.339041 9.92338 2.64343 12.2406C3.84414 13.1735 5.32149 13.6796 6.84198 13.6789ZM3.20815 3.20602C5.21508 1.19875 8.46895 1.19871 10.4759 3.20595C12.4829 5.21318 12.4829 8.46754 10.476 10.4748C8.46906 12.4821 5.21519 12.4821 3.20822 10.4749C3.20819 10.4748 3.20819 10.4748 3.20815 10.4748C1.20122 8.48221 1.1894 5.2397 3.1817 3.23247C3.1905 3.22363 3.19931 3.21482 3.20815 3.20602Z" fill="#828282"/>
<path   opacity="0.4" d="M3.20815 3.20602C5.21508 1.19875 8.46895 1.19871 10.4759 3.20595C12.4829 5.21318 12.4829 8.46754 10.476 10.4748C8.46906 12.4821 5.21519 12.4821 3.20822 10.4749C1.2013 8.48228 1.1894 5.2397 3.1817 3.23247L3.20815 3.20602Z" fill="#484848"/>
</svg>
